<svg id="chat-speech-balloon" xmlns="http://www.w3.org/2000/svg" width="33.452" height="31" viewBox="0 0 33.452 31">
  <g id="Group_110" data-name="Group 110" transform="translate(0 0)">
    <path id="Path_195" data-name="Path 195" d="M16.726,17.425C7.5,17.425,0,23.306,0,30.523c0,3.728,1.994,7.217,5.482,9.709l-1.2,6.8a1.169,1.169,0,0,0,.478,1.176,1.117,1.117,0,0,0,.7.219,1.057,1.057,0,0,0,.558-.14l8.832-4.745c.638.06,1.256.08,1.874.08,9.23,0,16.726-5.881,16.726-13.1S25.956,17.425,16.726,17.425Zm0,23.783c-.638,0-1.316-.04-1.994-.1a1.226,1.226,0,0,0-.7.14L7.057,45l.9-5.123a1.185,1.185,0,0,0-.538-1.216c-3.21-2.053-5.044-5-5.044-8.134,0-5.9,6.439-10.705,14.334-10.705s14.334,4.8,14.334,10.705S24.621,41.208,16.726,41.208Z" transform="translate(0 -17.425)" fill="#d5d5d5"/>
  </g>
</svg>
