<svg xmlns="http://www.w3.org/2000/svg" width="29.274" height="29.274" viewBox="0 0 29.274 29.274"><g transform="translate(0)"><path d="M29.274,15.109V11.321A2.346,2.346,0,0,0,27.592,9.06l-3.039-.912V7.43a3.3,3.3,0,0,0,1.417-2.708V3.305a3.305,3.305,0,0,0-6.61,0V4.722A3.3,3.3,0,0,0,20.775,7.43v.717l-2.679.8a5.457,5.457,0,0,0-7.2-.083L8.5,8.148V7.43A3.3,3.3,0,0,0,9.915,4.722V3.305a3.305,3.305,0,0,0-6.61,0V4.722A3.3,3.3,0,0,0,4.722,7.43v.717l-3.039.912A2.347,2.347,0,0,0,0,11.321v3.789H.944V11.321a1.407,1.407,0,0,1,1.01-1.357l3.04-.912a2.053,2.053,0,0,0,1.616.864,2.053,2.053,0,0,0,1.616-.864l1.936.581a5.45,5.45,0,0,0-1.148,2.743,3.3,3.3,0,0,0-5.709,2.261v1.416a3.3,3.3,0,0,0,1.416,2.708v.717l-3.039.912A2.347,2.347,0,0,0,0,22.653v4.261H5.666a.473.473,0,0,1,.472.472v1.889h17V27.386a.473.473,0,0,1,.472-.472h5.666V22.653a2.346,2.346,0,0,0-1.682-2.261l-3.039-.912v-.717a3.3,3.3,0,0,0,1.416-2.708V14.638A3.3,3.3,0,0,0,20.3,12.329v-.447a2.539,2.539,0,0,0-1.3-2.216l2.042-.613a1.944,1.944,0,0,0,3.232,0l3.041.912a1.407,1.407,0,0,1,1.009,1.357v3.789ZM6.61.944A2.364,2.364,0,0,1,8.971,3.305H6.806A1.148,1.148,0,0,1,6,2.971l-.334-.334-.334.334a1.148,1.148,0,0,1-.806.334H4.249A2.364,2.364,0,0,1,6.61.944ZM4.249,4.722V4.25h.277a2.068,2.068,0,0,0,1.14-.338,2.068,2.068,0,0,0,1.14.338H8.971v.472a2.361,2.361,0,0,1-4.722,0ZM6.61,8.971a1.208,1.208,0,0,1-.944-.6V7.888a3.277,3.277,0,0,0,1.889,0v.481A1.206,1.206,0,0,1,6.61,8.971Zm12.979,8.287a3.32,3.32,0,0,0,1.186,1.5v.717l-3.039.912a2.319,2.319,0,0,0-.292.111L17,20.4v-.93a3.8,3.8,0,0,0,1.147-1.549,2.351,2.351,0,0,0,1.445-.663ZM14.637,20.3a3.751,3.751,0,0,0,1.416-.278v.514L14.637,21.6l-1.416-1.062v-.514a3.751,3.751,0,0,0,1.416.278Zm-2,.982,1.151.864-1.184.711-.3-1.5Zm1.475,3.74h1.043l.367,3.305H13.748Zm1.126-.944H14.033l-.271-.813.875-.525.875.525Zm.241-1.932,1.151-.864.332.077-.3,1.5Zm3.508-5.614a1.416,1.416,0,0,1-.6.382,3.829,3.829,0,0,0,.02-.39V14.266a1.426,1.426,0,0,1,.937,1.174,1.408,1.408,0,0,1-.361,1.094Zm-1.52-.009a2.833,2.833,0,1,1-5.666,0V14.165h1.6a6.072,6.072,0,0,0,2.925-.747l.373.747h.764Zm-6.59.39a1.4,1.4,0,0,1-.02-2.649v2.259a3.829,3.829,0,0,0,.02.39Zm.25,1.005a3.789,3.789,0,0,0,1.147,1.549v.93l-.446.1a2.444,2.444,0,0,0-.292-.111L8.5,19.48v-.717a3.323,3.323,0,0,0,1.186-1.5,2.351,2.351,0,0,0,1.445.663ZM6.61,12.276a2.364,2.364,0,0,1,2.361,2.361H8.694a1.148,1.148,0,0,1-.806-.334l-.334-.334-.334.334a1.148,1.148,0,0,1-.806.334H4.249A2.364,2.364,0,0,1,6.61,12.276ZM4.249,16.054v-.472H6.415a2.068,2.068,0,0,0,1.14-.338,2.068,2.068,0,0,0,1.14.338h.277v.472a2.361,2.361,0,0,1-4.722,0ZM6.61,19.359a3.285,3.285,0,0,0,.944-.139V19.7a1.206,1.206,0,0,1-.944.6,1.208,1.208,0,0,1-.944-.6V19.22A3.3,3.3,0,0,0,6.61,19.359Zm-.944,6.61H3.777V22.664H2.833v3.305H.944V22.653A1.407,1.407,0,0,1,1.954,21.3l3.04-.912a2.054,2.054,0,0,0,1.616.864,2.053,2.053,0,0,0,1.616-.864l1.79.537-1.317.3a3.291,3.291,0,0,0-2.562,3.221v.579h.944v-.579a2.351,2.351,0,0,1,1.83-2.3l2.475-.571.557,2.784.988-.593.279.839L12.8,28.33h-2.41V24.553H9.443V28.33H7.082v-.944a1.418,1.418,0,0,0-1.416-1.416ZM27.32,21.3a1.407,1.407,0,0,1,1.01,1.357v3.316H26.441V22.664H25.5v3.305H23.608a1.418,1.418,0,0,0-1.416,1.416v.944H19.831V24.553h-.944V28.33h-2.41L16.062,24.6l.279-.839.988.593.557-2.784,2.476.571a2.351,2.351,0,0,1,1.83,2.3v.579h.944v-.579a3.291,3.291,0,0,0-2.562-3.221l-1.317-.3,1.79-.537a1.944,1.944,0,0,0,3.232,0ZM23.608,19.7a1.042,1.042,0,0,1-1.889,0V19.22a3.272,3.272,0,0,0,1.889,0Zm-.944-1.287A2.364,2.364,0,0,1,20.3,16.054v-.472h.277a2.068,2.068,0,0,0,1.14-.338,2.068,2.068,0,0,0,1.14.338h2.165v.472A2.364,2.364,0,0,1,22.664,18.415Zm0-6.138a2.364,2.364,0,0,1,2.361,2.361H22.859a1.148,1.148,0,0,1-.806-.334l-.334-.334-.334.334a1.148,1.148,0,0,1-.806.334H20.3a2.364,2.364,0,0,1,2.361-2.361Zm-3.305,1.457a2.481,2.481,0,0,0-1.5-.512H17.29l-.581-1.162-.445.3a5.133,5.133,0,0,1-2.857.865H11.413a2.481,2.481,0,0,0-1.5.512v-.7a4.536,4.536,0,0,1,7.743-3.207l.5.5.106.036a1.6,1.6,0,0,1,1.093,1.517ZM22.664.944a2.364,2.364,0,0,1,2.361,2.361h-.277a1.148,1.148,0,0,1-.806-.334l-.334-.334-.334.334a1.148,1.148,0,0,1-.806.334H20.3A2.364,2.364,0,0,1,22.664.944ZM20.3,4.722V4.25h2.165a2.068,2.068,0,0,0,1.14-.338,2.068,2.068,0,0,0,1.14.338h.277v.472a2.361,2.361,0,0,1-4.722,0Zm2.361,4.249a1.207,1.207,0,0,1-.944-.6V7.888a3.272,3.272,0,0,0,1.889,0v.481a1.206,1.206,0,0,1-.944.6Zm0,0" transform="translate(0 0)" fill="#02979d"/><path d="M184,0h.944V.944H184Zm0,0" transform="translate(-173.14)" fill="#02979d"/><path d="M184,32h.944v5.194H184Zm0,0" transform="translate(-173.14 -30.111)" fill="#02979d"/><path d="M296,0h.944V.944H296Zm0,0" transform="translate(-278.53)" fill="#02979d"/><path d="M296,32h.944v5.194H296Zm0,0" transform="translate(-278.53 -30.111)" fill="#02979d"/><path d="M216,32h.944v3.305H216Zm0,0" transform="translate(-203.252 -30.111)" fill="#02979d"/><path d="M216,104h.944v.944H216Zm0,0" transform="translate(-203.252 -97.862)" fill="#02979d"/><path d="M264,32h.944v3.305H264Zm0,0" transform="translate(-248.419 -30.111)" fill="#02979d"/><path d="M264,104h.944v.944H264Zm0,0" transform="translate(-248.419 -97.862)" fill="#02979d"/></g></svg>