<svg xmlns="http://www.w3.org/2000/svg" xmlns:xlink="http://www.w3.org/1999/xlink" width="759.613" height="424.342" viewBox="0 0 759.613 424.342"><defs><clipPath id="a"><path d="M416.205,372.094a45.119,45.119,0,0,1-6.9,7.294l-1.5,4.842,23.875-.62-.374-3.146s-5.757-5.978-6.35-9.366l-.745,1.97a3.647,3.647,0,0,0-7.13.1Z" transform="translate(-407.808 -370.239)" fill="none"/></clipPath><clipPath id="b"><path d="M385.434,349.123a45.1,45.1,0,0,1-9.876-1.813l-4.876,1.385,13.531,19.682,2.435-2.029s1.874-8.084,4.392-10.427l-2.057.448a3.647,3.647,0,0,0-3.971-5.922Z" transform="translate(-370.682 -347.31)" fill="none"/></clipPath><clipPath id="c"><path d="M300.994,372.1c.2-.731,1.449-5.033-2.623-1.649-2.082,1.734-9.211,5.533-18.4,4-4.259-.713-5-.635-7.329.735-1.611.948-.895,2.792-1.43,4.025,26.143,3.686,37.433-1.358,38.678-2.1-.292-3.914-2.044-3.708-1.318-5.449C308.011,370.665,302.835,371.519,300.994,372.1Z" transform="translate(-271.208 -369.171)" fill="none"/></clipPath><clipPath id="d"><path d="M254.222,372.1c.2-.731,1.449-5.033-2.622-1.649-2.084,1.734-9.213,5.533-18.4,4-4.259-.713-5-.635-7.327.735-1.611.948-.9,2.792-1.43,4.025,26.143,3.686,37.432-1.358,38.678-2.1-.293-3.914-2.044-3.708-1.318-5.449C261.239,370.665,256.065,371.519,254.222,372.1Z" transform="translate(-224.438 -369.171)" fill="none"/></clipPath><clipPath id="e"><path d="M228.247,228.342c-.162-7.366-49.067-24.592-49.951-14.427-1.889,21.684,4.21,66.07,4.829,77.9.694,13.258,4.185,27.12,3.882,40.272-.4,17.475-2.7,77.09-9.272,112.114-2.421,12.9-24.474,32.615-20.529,33.346,2.536.472,20.2-5.368,27.685-15.8,1.592-2.214.93,15.927,2.175,13.981,1.048-1.641,4.067-23.431,4.741-24.708,1.953-3.7-.743-10.416,1.473-18.363,5.533-19.876,17.028-48.459,19.081-62.6,1.666-11.485-4.268-33.605-4-34.756,3.548-15.116,12.158-36.483,16.3-52.527C230.247,261.106,228.643,246.413,228.247,228.342Z" transform="translate(-156.734 -210.786)" fill="none"/></clipPath><clipPath id="f"><path d="M183.056,246.478s23.373,72.26,26.03,87.09c1.429,7.969,4.872,16.055,5.28,24.184,1.072,21.214,2.564,80.585,1.2,94.89-.074.777-3.643,13.59-3.093,22.234.509,8,2.836,9.445,3.365,10.21,5.273,7.622,8.722.44,9.5-11.514.558-8.618-1.282-22.317-.81-24.238,2.785-11.391,14.383-45.116,15.915-52.319,3.872-18.228-1.825-36.54-8.348-52.593-1.306-3.211,5.572-30.032,7.422-58.889,1.6-24.888.837-57.565-28.962-74.732-1.363-.783-41.219,6.748-41.219,6.748S171.4,229.094,183.056,246.478Z" transform="translate(-169.33 -210.745)" fill="none"/></clipPath><clipPath id="g"><path d="M397.329,189.249c5.272,2.857,9.9,31.52-.509,71.146-5.674,21.606-25.766,52.677-33.388,49.453-5.356-2.266-9.3-26.408,1.762-66.6C370.994,222.183,392.059,186.391,397.329,189.249Z" transform="translate(-358.129 -189.087)" fill="none"/></clipPath><clipPath id="h"><path d="M111.252,374c.2-.729,1.449-5.033-2.622-1.648-2.084,1.732-9.213,5.533-18.4,4-4.259-.713-5-.635-7.327.733-1.611.949-.9,2.792-1.43,4.027,26.143,3.685,37.432-1.358,38.678-2.1-.293-3.915-2.044-3.708-1.318-5.45C118.269,372.561,113.1,373.413,111.252,374Z" transform="translate(-81.468 -371.066)" fill="none"/></clipPath><clipPath id="i"><path d="M64.482,374c.2-.729,1.449-5.033-2.623-1.648-2.082,1.732-9.211,5.533-18.4,4-4.259-.713-5-.635-7.327.733-1.612.949-.9,2.792-1.43,4.027,26.142,3.685,37.432-1.358,38.678-2.1-.293-3.915-2.045-3.708-1.319-5.45C71.5,372.561,66.324,373.413,64.482,374Z" transform="translate(-34.698 -371.066)" fill="none"/></clipPath></defs><g transform="translate(-28.798 -130.989)"><g transform="translate(604.809 243.821)"><g transform="translate(25.424)"><path d="M438.308,198.614c-14.776-3.156-35.32,5.208-36.357,22.395-.842,13.955-.157,18.56-8.338,23.606-12.528,7.727-9.3,28.522,4.409,32.271,19.182,5.247.275,7.786,29.045,8.845s30.018-10.183,42.752-19.648c10.948-8.136,11.126-29.884-2.357-36.165S467.519,204.855,438.308,198.614Z" transform="translate(-385.772 -197.959)" fill="#002d8b" fill-rule="evenodd"/></g><g transform="translate(105.488 183.278)"><path d="M450.815,306.741l-17.522,1.1,4.662,103.392,4.872-.056Z" transform="translate(-433.293 -306.741)" fill="#ffb5b5" fill-rule="evenodd"/></g><g transform="translate(24.824 183.278)"><path d="M402.938,306.741l-17.522,1.1,4.66,103.392,4.872-.056Z" transform="translate(-385.416 -306.741)" fill="#ffb5b5" fill-rule="evenodd"/></g><g transform="translate(13.913 64.608)"><path d="M434.247,236.415s-43.815,11.152-36.55,73.613c0,0-22.243,12.581-18.285,35.971s49.69,27.831,62.98,26.773,57.53-3.189,59.349-34.219a36.994,36.994,0,0,0-10.267-27.476S498.729,233,434.247,236.415Z" transform="translate(-378.94 -236.306)" fill="#ff8e8e" fill-rule="evenodd"/></g><g transform="translate(22.61 128.296)"><path d="M416.327,274.568S379.9,289.006,384.5,312.411s32.581,22.056,54.074,21.254,48.364-2.224,50.634-23.5S472.113,270.976,416.327,274.568Z" transform="translate(-384.102 -274.107)" fill="#002d8b" fill-rule="evenodd"/></g><g transform="translate(69.074 274.779)"><path d="M422.5,361.238c1.7-2.256.322,16.52-.93,18.735-.885,1.565-9.339,3.442-8.96,1.671,2.067-9.679-1.538-16.587-.839-18.427C412.711,360.74,420.846,363.434,422.5,361.238Z" transform="translate(-411.68 -361.051)" fill="#ffb5b5" fill-rule="evenodd"/></g><g transform="translate(10.995 240.788)"><path d="M397.859,346.211c2.74-.7-10.084,13.091-12.446,14.036-1.67.667-9.44-3.157-8.036-4.3,7.669-6.257,9.177-13.9,10.874-14.9C390.533,339.7,395.193,346.888,397.859,346.211Z" transform="translate(-377.208 -340.875)" fill="#ffb5b5" fill-rule="evenodd"/></g><path d="M416.205,372.094a45.119,45.119,0,0,1-6.9,7.294l-1.5,4.842,23.875-.62-.374-3.146s-5.757-5.978-6.35-9.366l-.745,1.97a3.647,3.647,0,0,0-7.13.1Z" transform="translate(-345.258 -79.979)" fill-rule="evenodd"/><g transform="translate(62.55 290.26)"><g clip-path="url(#a)"><g transform="translate(-2.92 4.275)"><path d="M441.084,375.552l.16.025.158.037.155.047.15.062.145.074.138.084.131.094.123.106.115.116.1.123.093.133.084.14.071.145.061.152.047.155.035.158.022.162.008.162,0,.162-.018.162-.029.158-.044.157-.056.153-.067.148-.078.142-.093.135-.1.128-.109.116-.12.111-.128.1-.136.091-.143.078-.147.064-.153.054-.158.042-.16.029-.16.013-1.026.057-1.023.061-1.021.061-1.023.064-1.021.069-1.021.071-1.021.074-1.023.074-1.019.079-1.021.081-1.021.086-1.019.086-1.021.089-1.018.094-1.021.094-1.019.1-1.018.1-1.021.1-1.018.1-1.019.108-1.018.111-1.018.111-1.019.116-1.016.118-1.019.121-1.016.121-1.018.125-1.016.128-1.018.13-1.016.131-1.016.135-1.019.137-.162.015-.162,0-.162-.012-.162-.024-.158-.037-.153-.049-.15-.061-.147-.074-.138-.086-.13-.1-.123-.106-.115-.115-.1-.125-.093-.133-.083-.138-.072-.147-.059-.15-.047-.157-.034-.158-.022-.16-.01-.163.007-.162.015-.162.03-.16.044-.157.056-.152.069-.147.079-.143.089-.135.1-.125.111-.12.121-.109.128-.1.136-.088.141-.078.15-.066.153-.054.157-.04.16-.027,1.021-.138,1.026-.137,1.026-.133,1.026-.128,1.026-.13,1.024-.126L415,377.8l1.026-.12,1.028-.12,1.028-.116,1.028-.115,1.029-.111,1.028-.109L422.2,377l1.028-.1,1.029-.1,1.029-.1,1.031-.094,1.029-.094,1.031-.089,1.029-.088,1.031-.086,1.031-.083,1.033-.081,1.031-.076,1.033-.076,1.031-.069,1.033-.069,1.033-.066,1.034-.064,1.033-.059,1.031-.056.163,0Z" transform="translate(-406.075 -370.882)" fill="#eceeee" fill-rule="evenodd"/><path d="M409.52,372.776l1.215.522.047.12.047.121.047.125.044.123.042.123.042.123.039.123.037.125.071.244.066.243.059.244.054.243.051.241.047.243.04.239.039.239.034.226,0,.012.03.236.029.234.027.236.051.465.013.126.015.064.039.162.035.16.025.125.007.035.037.2.034.2.032.2.03.2.029.2.025.2.025.2.022.2.008.1.008.1.01.185.005.18.008.163.01.2,0,.03,0,.078,0,.106-.008.061-.025.123-.042.118h0l0,0-.074.137-.1.125-.116.1-.131.084-.143.059-.152.037h0l-.148.01-.147-.013-.145-.039-.135-.059-.123-.081-.111-.1-.091-.116-.074-.128-.04-.089-.03-.125-.049-.258-.045-.243-.042-.241-.035-.241-.035-.239-.034-.238-.029-.238-.029-.236-.052-.465-.049-.458-.047-.453-.052-.452-.027-.219-.03-.219-.03-.219,0-.01-.029-.207-.034-.216-.037-.214-.039-.212-.017-.079-.019-.057-.051-.136-.054-.136,0-.008-.051-.13-.054-.136-.059-.135-.057-.135-.034-.078-.024-.057-.056-.137L409,374.5l-.012-.025.051-.17.027-.135-.025-.071-.042-.106Z" transform="translate(-404.079 -372.776)" fill="#eceeee" fill-rule="evenodd"/></g></g></g><g transform="translate(0 251.629)"><path d="M385.434,349.123a45.1,45.1,0,0,1-9.876-1.813l-4.876,1.385,13.531,19.682,2.435-2.029s1.874-8.084,4.392-10.427l-2.057.448a3.647,3.647,0,0,0-3.971-5.922Z" transform="translate(-370.682 -347.31)" fill-rule="evenodd"/><g clip-path="url(#b)"><g transform="translate(-2.6 -1.794)"><path d="M371.307,346.528l.142.015.143.027.138.037.135.045.133.054.128.066.123.074.118.083.115.091.1.1.1.106.674.782.671.787.672.789.667.789.667.79.664.79.665.8.659.794.66.8.657.8.655.8.655.8.652.8.649.8.647.807.647.807.644.809.642.812.64.812.637.815.635.815.632.819.632.819.63.822.627.824.625.826.622.826.62.829.618.831.617.832.613.834.608.834.081.12.072.125.062.128.052.133.045.14.034.138.024.142.013.143,0,.143-.007.145-.015.143-.029.14-.037.14-.047.136-.056.131-.067.128-.074.125-.083.116-.091.109-.1.1-.106.1-.113.089-.12.081-.123.071-.13.064-.133.054-.137.044-.141.034-.142.024-.143.013-.143,0-.143-.007-.143-.019-.141-.025-.14-.037-.136-.045-.131-.059-.128-.064-.121-.076-.12-.084-.111-.091-.1-.1-.1-.106-.088-.113-.607-.829-.608-.824-.608-.824-.61-.822-.615-.819-.615-.819-.618-.815-.62-.815-.622-.812-.625-.812-.627-.809-.628-.809-.632-.807-.634-.8-.635-.8-.637-.8-.639-.8-.644-.8-.642-.8-.645-.8-.649-.794-.649-.792-.65-.79-.654-.789-.657-.789-.657-.785-.657-.785-.662-.783-.662-.782-.664-.782-.667-.778-.671-.78-.089-.111-.081-.118-.072-.125-.066-.13-.054-.133-.044-.136-.035-.14-.025-.141-.015-.143,0-.143.005-.143.017-.143.025-.142.037-.14.046-.137.056-.133.066-.128.074-.123.081-.118.093-.111.1-.106.106-.1.113-.091.12-.083.125-.072.126-.062.135-.056.136-.046.138-.034.143-.025.141-.015.147,0Z" transform="translate(-369.139 -346.055)" fill="#eceeee" fill-rule="evenodd"/><path d="M379.13,346.245l.224,1.3-.074.1-.076.106-.079.106-.077.1-.083.1-.079.1-.081.1-.086.1-.165.19-.169.187-.174.184-.174.177-.175.174-.177.172-.177.165-.18.162-.172.152-.008.008-.18.153-.182.153-.184.15-.362.3-.1.079-.045.049-.116.12-.115.116-.089.089-.027.025-.145.138-.147.135-.148.135-.148.135-.15.131-.155.13-.152.13-.157.128-.081.062-.081.061-.15.111-.148.1-.133.094-.157.115-.025.019-.064.044-.091.056-.056.025-.116.046-.123.03h0l-.155.012-.157-.013-.152-.04-.141-.064-.128-.088-.113-.108,0,0-.089-.118-.067-.131-.047-.142-.024-.145v-.148l.024-.147.047-.14.067-.131.052-.084.089-.091.189-.184.179-.17.18-.165.182-.162.18-.16.182-.157.184-.153.182-.153.361-.3.359-.292.354-.288.349-.288.169-.143.168-.143.169-.145.007-.007.157-.137.163-.147.16-.147.155-.15.059-.056.037-.049.088-.116.084-.12.005-.005.081-.113.086-.121.083-.121.081-.121.047-.071.035-.052.084-.121.081-.123.015-.022.169-.051.128-.051.046-.059.066-.094Z" transform="translate(-367.01 -346.245)" fill="#eceeee" fill-rule="evenodd"/></g></g></g><path d="M441.638,286.509c-5.132-1.537-19.128,6.129-28.895,23.294s-31.429,74.017-31.429,74.017l11.745,4.424s40.195-47.217,50.487-69.222S446.772,288.047,441.638,286.509Z" transform="translate(-363.4 -137.45)" fill="#0052e9" fill-rule="evenodd"/><g transform="translate(59.639 165.319)"><path d="M419.8,296.257c-5.225,1.184-13.647,14.737-13.718,34.486s9,79.907,9,79.907l12.4-1.919s11.806-60.874,9.956-85.1S425.026,295.073,419.8,296.257Z" transform="translate(-406.08 -296.082)" fill="#0052e9" fill-rule="evenodd"/></g><g transform="translate(62.563 52.063)"><path d="M410.48,234.5s.33,9.619-2.411,16.5,17.557,12.636,21.247.878a20.3,20.3,0,0,1-2.18-13.4C428.676,231.264,417.922,223.148,410.48,234.5Z" transform="translate(-407.815 -228.86)" fill="#ffb3b3" fill-rule="evenodd"/></g><path d="M418.05,239.07s-9.743,8.95-22.725,12.949l3.344,51.646,59.071,2.809,8.572-39.5-28.947-24.472Z" transform="translate(-353.806 -169.806)" fill="#a7e5ec" fill-rule="evenodd"/><g transform="translate(55.233 20.259)"><path d="M432.467,212.653c-4.045-5.289-10.267-2.868-12.382,8.579-1.5,8.124-16.885,10.977-16.617,13.792C404.794,249,416.4,256.656,421.29,256.211c12.533-1.137,19.985-25.316,17.738-27.474C434.275,224.172,435.824,217.039,432.467,212.653Z" transform="translate(-403.465 -209.983)" fill="#ffb6b6" fill-rule="evenodd"/></g><g transform="translate(24.218 69.586)"><rect width="99.932" height="64.67" fill="#a7e5ec"/></g><g transform="translate(62.871 94.626)"><circle cx="10.508" cy="10.508" r="10.508" fill="#002d8b"/></g></g><g transform="translate(351.772 227.881)"><g transform="translate(131.372 199.218)"><path d="M315.991,306.741l-17.522,1.1,4.66,103.392,4.873-.056Z" transform="translate(-298.469 -306.741)" fill="#ffb5b5" fill-rule="evenodd"/></g><g transform="translate(154.132 194.313)"><path d="M329.571,303.83l-17.593,6,4.662,103.392,4.872-.056Z" transform="translate(-311.978 -303.83)" fill="#ffb5b5" fill-rule="evenodd"/></g><g transform="translate(69.521 199.218)"><path d="M279.28,306.741l-17.522,1.1,4.66,103.392,4.872-.056Z" transform="translate(-261.758 -306.741)" fill="#ffb5b5" fill-rule="evenodd"/></g><path d="M331.947,231.249s34-1.705,40.21,12.41,1.67,87.663-3.622,108.883c-2.711,10.875-14.927,15.674-28.121,18.435s-73.822-1.894-73.822-1.894-16.943-7.708-4.126-17.7L317.5,300.953Z" transform="translate(-195.036 -159.265)" fill="#a7e5ec" fill-rule="evenodd"/><g transform="translate(72.604)"><g transform="translate(30.926 63.551)"><path d="M331.983,312.253s2.207-44.122,2.608-47.323c1.557-12.394,2.522-23.394-3.354-28.735-3.279-2.98-7.256-6.952-12.464-9.275-2.777-1.24-15.524-1.191-22.612,3.083-4.724,2.849-8.567,16.282-10.446,25.222-2.369,11.276-3.771,42.444-3.771,42.444,4.145,12.085,43.025,21.778,50.039,14.584" transform="translate(-281.944 -226.218)" fill="#ffb5b5"/></g><g transform="translate(19.115 63.646)"><path d="M301.126,229.666s-5.221,8.963,2.406,11.807c18.174,6.778,20.322-15.2,20.322-15.2,4.32,1.156,16.986,7.046,18.383,14.938,3.4,19.239,2.022,100.5,2.022,100.5l-69.325-3.942s3.784-59.562,6.278-77.267C285.311,231.389,301.126,229.666,301.126,229.666Z" transform="translate(-274.934 -226.274)" fill="#002d8b"/></g><path d="M326.783,245.029c4.342,2.654,9.214-10.631,11.2-14.5s3.238-8.692.511-13.027a9.543,9.543,0,0,1-1.5-2.711,5.067,5.067,0,0,1,.526-2.859c2.113-5.759-1.847-12.636-6.143-18.535a12.2,12.2,0,0,0-3.806-3.626,12.378,12.378,0,0,0-6.086-1.272c-13.684.049-21.064,9.091-34.689,9.4-3.983.091-8.114-.6-12.1-.548s-8.047,1.023-10.074,3.755-1.051,7.55,2.713,9.543c2.424,1.282,5.182,1.1,7.7.874-3.452,3.065-2.025,9.231,2.089,13.01s10.063,5.408,15.416,5.487c3.988.057,7.924-.62,11.955.394C311.433,232.158,320.573,241.236,326.783,245.029Z" transform="translate(-263.588 -188.498)" fill="#002d8b"/><g transform="translate(45.38 42.07)"><path d="M299.542,248.266C310.849,246.65,312.49,235.8,312.49,235.8l-3.845-16.149c-.6-4.731-6-7.255-11.568-5.75s-7.027,7.732-6.429,12.463l.861,17.414C292.105,248.509,296.526,248.7,299.542,248.266Z" transform="translate(-290.523 -213.468)" fill="#ffb5b5"/></g><g transform="translate(19.019 8.786)"><path d="M294.51,252.527c9.512,8.562,20.526-5.771,24.543-11.069,5.993-7.91,9.184-39.485-6.288-45.9s-32.96,5.3-37.2,14.08S287.823,246.5,294.51,252.527Z" transform="translate(-274.877 -193.713)" fill="#ffb5b5"/></g><g transform="translate(58.467 32.187)"><path d="M298.472,212.877c-.684,4.263.642,7.856,2.733,8.08,7,.748,10.269-1.06,10.953-5.321s-1.948-7.088-5.727-7.851-7.275.831-7.959,5.092" transform="translate(-298.29 -207.602)" fill="#ffb5b5"/></g><g transform="translate(16.884 5.918)"><path d="M274.569,208.844c1.946-4.6,6.62-8.055,11.485-10.21a92.02,92.02,0,0,1,14.014-4.593c4.507-1.174,9.47-2.273,14.319-1.985,9.143.539,11.185,11.052,11.066,17.7-.062,3.408,3.124,5.964.724,8.561-1.031,1.112-3.6,1.513-5.233,1.72-1.956.251,3.656,10.3-.275,12.038-.467.206-5.243-2.448-8.465-7.939-2.344-4-2.544-9.6-3.644-12.171-.554-1.3-1.956-3.506-2.95-3.26-1.572-.278-2.7.827-3.648,1.735-1.068,1.028-1.88,2.33-2.851,3.44a30.22,30.22,0,0,1-5.727,5.213c-3.747,2.544-9.718,4.6-14.587,2.414a8.148,8.148,0,0,1-4.662-5.268.734.734,0,0,1-.295-.463,12.42,12.42,0,0,1-.216-2.65,22.365,22.365,0,0,1,.236-4.118c.047-.317.477-.342.706-.162-.1.227-.187.458-.27.692l.1,2.512a10.429,10.429,0,0,0,.076,3.358c.015.061.032.123.051.182l.024.081,0,.123c-.029-.128-.056-.256-.078-.386a16.3,16.3,0,0,1-.251-5.659,11.775,11.775,0,0,0-.6,3.376,12.672,12.672,0,0,0,.511,3.114.962.962,0,0,0,.676.175,7.507,7.507,0,0,1-.261-.743l-.15-3.621a10.858,10.858,0,0,1,.268-1.329c.007-.537.024-1.072.039-1.592A.339.339,0,0,0,274.569,208.844Z" transform="translate(-273.609 -192.01)" fill="#002d8b"/></g></g><g transform="translate(39.802 155.487)"><path d="M246.146,324.176l81.006-1.329s14.924-.853,25.434-5.737c8.651-4.018,12.865-12.72,12.865-12.72l-2.323-5.115-48.1-18.489-70.907,4.569Z" transform="translate(-244.119 -280.785)" fill="#002d8b" fill-rule="evenodd"/></g><g transform="translate(111.005 290.719)"><path d="M297.2,361.238c1.7-2.256.322,16.52-.93,18.735-.886,1.565-9.339,3.442-8.962,1.671,2.069-9.679-1.537-16.587-.837-18.427C287.412,360.74,295.545,363.434,297.2,361.238Z" transform="translate(-286.381 -361.051)" fill="#ffb5b5" fill-rule="evenodd"/></g><g transform="translate(32.206 290.719)"><path d="M250.431,361.238c1.7-2.256.322,16.52-.93,18.735-.886,1.565-9.339,3.442-8.962,1.671,2.069-9.679-1.537-16.587-.837-18.427C240.642,360.74,248.775,363.434,250.431,361.238Z" transform="translate(-239.611 -361.051)" fill="#ffb5b5" fill-rule="evenodd"/></g><g transform="translate(85.442 304.401)"><path d="M300.994,372.1c.2-.731,1.449-5.033-2.623-1.649-2.082,1.734-9.211,5.533-18.4,4-4.259-.713-5-.635-7.329.735-1.611.948-.895,2.792-1.43,4.025,26.143,3.686,37.433-1.358,38.678-2.1-.292-3.914-2.044-3.708-1.318-5.449C308.011,370.665,302.835,371.519,300.994,372.1Z" transform="translate(-271.208 -369.171)" fill-rule="evenodd"/><g clip-path="url(#c)"><g transform="translate(-10.719 3.458)"><path d="M306.71,375.271q1.188-.417,2.357-.922c2.632-.987,6.288-2.724,6.426-2.788,2.655-1.294,8,1.264-3.031,5.447-13.627,6.662-28.409,5.182-42.4,1.471l-4.77-1.633-.443-.762,2.035-.174c2.178.413,4.33.866,6.52,1.36l-2.674-1.531c-.682-.75-.647-1.092.229-1.821,1.707-1.021,2.3.3,2.3.3a58.826,58.826,0,0,0,8.1,2.318c2.531-.537,11.682-4.246,18.132-2.7,0,0,3.479.452,5.27.9Q305.745,374.995,306.71,375.271Zm-22,1.867a46.858,46.858,0,0,0,19.215-.989,63.365,63.365,0,0,0-6.751-1.7,12.481,12.481,0,0,0-6.15.537c-1.742.521-2.593,1.019-3.526,1.309S285.64,376.868,284.707,377.138Zm17.086-2.554,1.8.3S301.486,374.488,301.792,374.584Z" transform="translate(-264.846 -371.224)" fill="#eceeee"/></g></g></g><g transform="translate(6.643 304.401)"><path d="M254.222,372.1c.2-.731,1.449-5.033-2.622-1.649-2.084,1.734-9.213,5.533-18.4,4-4.259-.713-5-.635-7.327.735-1.611.948-.9,2.792-1.43,4.025,26.143,3.686,37.432-1.358,38.678-2.1-.293-3.914-2.044-3.708-1.318-5.449C261.239,370.665,256.065,371.519,254.222,372.1Z" transform="translate(-224.438 -369.171)" fill-rule="evenodd"/><g clip-path="url(#d)"><g transform="translate(-10.719 3.458)"><path d="M259.94,375.271q1.188-.417,2.357-.922c2.63-.987,6.288-2.724,6.424-2.788,2.657-1.294,8.006,1.264-3.029,5.447-13.628,6.662-28.409,5.182-42.4,1.471l-4.771-1.633-.441-.762,2.034-.174c2.18.413,4.332.866,6.52,1.36l-2.674-1.531c-.682-.75-.647-1.092.231-1.821,1.707-1.021,2.3.3,2.3.3a58.8,58.8,0,0,0,8.094,2.318c2.531-.537,11.684-4.246,18.134-2.7,0,0,3.479.452,5.27.9C258.645,374.912,259.3,375.086,259.94,375.271Zm-22.005,1.867a46.866,46.866,0,0,0,19.217-.989,63.283,63.283,0,0,0-6.753-1.7,12.473,12.473,0,0,0-6.148.537c-1.744.521-2.593,1.019-3.526,1.309S238.868,376.868,237.935,377.138Zm17.087-2.554,1.8.3S254.716,374.488,255.022,374.584Z" transform="translate(-218.076 -371.224)" fill="#eceeee"/></g></g></g><g transform="translate(101.962 156.914)"><path d="M294.415,281.67c-5.9,1.125-15.553,24.693-12.973,47.23,2.249,19.657,6.118,97.686,6.118,97.686l17.849-.743s10.655-86.215,11.4-103.7S300.309,280.545,294.415,281.67Z" transform="translate(-281.014 -281.632)" fill="#0052ea" fill-rule="evenodd"/></g><g transform="translate(24.365 156.914)"><path d="M248.358,281.67c-5.9,1.125-15.553,24.693-12.973,47.23,2.249,19.657,5.946,98.376,5.946,98.376l15.2-.438s13.472-87.211,14.221-104.693S254.252,280.545,248.358,281.67Z" transform="translate(-234.956 -281.632)" fill="#0052ea" fill-rule="evenodd"/></g><g transform="translate(89.641 68.221)"><g transform="translate(53.503 2.847)"><path d="M311.056,230.733c4.423.064,18.621-2.992,21.616,28.915,1.38,14.685-1.034,39.061-11.907,51.394-11.987,13.595-14.176,2.313-12.326-12.38,1.152-9.162.214-19.34-2.286-39.386C304.16,243.3,306.64,230.67,311.056,230.733Z" transform="translate(-305.456 -230.679)" fill="#ffb5b5" fill-rule="evenodd"/></g><g transform="translate(26.397 49.109)"><path d="M333.206,301.216c2.106-2.246,10.522-7.905-4.2-24.58-6.775-7.674-20.3-18.058-31.8-18.476-12.685-.46-8.026,6,.313,12.063,5.2,3.779,9.905,9.09,18.855,19.876C323.5,298.694,331.1,303.46,333.206,301.216Z" transform="translate(-289.368 -258.137)" fill="#ffb5b5" fill-rule="evenodd"/></g><g transform="translate(50.695)"><path d="M304.82,284a116.594,116.594,0,0,0-.76-40.656c-1.825-9.231,5.762-17.849,16.627-12.914,20.1,9.132,13.7,51.68,13.458,51.7C327.816,289.421,304.82,284,304.82,284Z" transform="translate(-303.789 -228.989)" fill="#002d8b" fill-rule="evenodd"/></g><g transform="translate(0 39.294)"><path d="M296.287,262.276l-.039-.094a53.391,53.391,0,0,1-1.675-5.553c-.091-.923-.163-2.328-.18-2.453-.244-1.958.259-1.639.352-1.69,1.978-1.09,2.788,3.161,6.013,6.48a15.963,15.963,0,0,0,2.256,1.843c.809-.015,8.032,1.619,8.8,1.688.475.04,6.631,12.045,2.694,12.458-10.518,1.1-15.883,1.024-17.645,2.013a47.971,47.971,0,0,0-7.676,5.61c-2.1,1.806-7.73,7.747-7.882,7.128a3.453,3.453,0,0,1,.75-2.408,48.073,48.073,0,0,1,5.11-7.174q.983-1.077,1.964-2.148c.337-.367.964-1.152.964-1.152s-.783.6-1.178.891c-.753.559-1.451,1.316-2.222,1.835-2.281,1.526-8.138,7.359-9.189,7.76-.29.108-.979.578-1.134-.052-.214-.885,3.678-5.58,4.808-6.724,2.374-2.4,4.883-5.159,5.511-5.846.076-.084.666-.607.671-.733.01-.2-.7.3-.741.313-.7.263-12.948,8.426-12.922,7.871.057-1.257,1.235-2.44,2.114-3.4a45.734,45.734,0,0,1,7.61-6.134c.9-.64,1.8-1.245,2.682-1.943.138-.11.981-.556.992-.785.007-.145-.61.334-.7.367-.556.212-1.279.76-1.911,1a54.838,54.838,0,0,0-6.857,3.624c-.881.494-3.186,2.1-3.4,1.732-.686-1.188,8.109-7.307,9.848-8.283A90.259,90.259,0,0,1,296.287,262.276Zm-1.306-9.127" transform="translate(-273.7 -252.312)" fill="#ffb5b5" fill-rule="evenodd"/></g></g><g transform="translate(0 77.594)"><g transform="translate(66.435 67.888)"><rect width="73.462" height="6.602" fill="#ffb5b5"/></g><g transform="translate(4.834)"><path d="M319.441,307.741l-8.535-73.188-87.541,5.607,13.59,67.583Z" transform="translate(-223.364 -234.553)" fill="#ffb5b5" fill-rule="evenodd"/></g><g transform="translate(0 0.539)"><path d="M316.572,308.061l-8.535-73.188L220.5,240.482l13.59,67.581Z" transform="translate(-220.495 -234.873)" fill="#ff8b8b" fill-rule="evenodd"/></g><g transform="translate(38.048 26.988)"><ellipse cx="8.254" cy="9.692" rx="8.254" ry="9.692" transform="matrix(0.953, -0.302, 0.302, 0.953, 0, 4.991)" fill="#ffb5b5"/></g></g></g><g transform="translate(244.347 130.989)"><g transform="translate(0 134.444)"><path d="M228.247,228.342c-.162-7.366-49.067-24.592-49.951-14.427-1.889,21.684,4.21,66.07,4.829,77.9.694,13.258,4.185,27.12,3.882,40.272-.4,17.475-2.7,77.09-9.272,112.114-2.421,12.9-24.474,32.615-20.529,33.346,2.536.472,20.2-5.368,27.685-15.8,1.592-2.214.93,15.927,2.175,13.981,1.048-1.641,4.067-23.431,4.741-24.708,1.953-3.7-.743-10.416,1.473-18.363,5.533-19.876,17.028-48.459,19.081-62.6,1.666-11.485-4.268-33.605-4-34.756,3.548-15.116,12.158-36.483,16.3-52.527C230.247,261.106,228.643,246.413,228.247,228.342Z" transform="translate(-156.734 -210.786)" fill="#ffb5b5" fill-rule="evenodd"/><g clip-path="url(#e)"><g transform="translate(-4.489 231.427)"><path d="M154.07,385.6s9.231-29.129,13-20.442c3.548,8.186,21.394-7.322,27.159-14.444,0,0,1.515-4,4.3-2.008l-6.242,36.512Z" transform="translate(-154.07 -348.147)" fill="#002d8b" fill-rule="evenodd"/></g></g></g><g transform="translate(11.283)"><path d="M236.747,206.039c.29.436.6.856.906,1.269,6.647,8.837,16.235,9.983,16.161,10.788-.534,5.917-6.18,16.779-6.854,16.771-.977-.015-2.734-1.193-6.411-4.4-2.935-2.559-5.1-5.373-5.354-5.442-.689-.185,2.278,4.62,5.454,8.239a27.414,27.414,0,0,0,5.105,4.458,32.875,32.875,0,0,1-3.328,6.234,49.936,49.936,0,0,1-8.286,7.757c-1.036.75-18.511,4.859-27.922,5.482-26.7,1.771-34.758-8.448-34.758-8.448s-9.713-21.871-7.774-59.294c.227-4.372.477-11.12,1.965-15.492,4.212-12.378,2.152-38.058,29.274-42.543,17.822-2.947,36,9.659,37.3,28.644,2.879,42.066,27.158,41.276,27.158,41.276l-3.491,10.048s-5.22-.254-7.514-1.289a41.59,41.59,0,0,1-9.563-6.364,34.051,34.051,0,0,0,2.576,2.918c3.717,3.575,8.32,6.825,13.189,7.236l.5.47s-9.689.3-16.343-6.084A19.934,19.934,0,0,1,236.747,206.039Z" transform="translate(-163.431 -130.989)" fill="#ff8b8b" fill-rule="evenodd"/></g><g transform="translate(5.133 68.878)"><path d="M160.27,242.389c-3,14.2,8.557,15.066,13.625,6.342,20.7-35.641,18.029-37.33,25.646-50.081,19.635-32.874-9.453-32.871-20.779-14.085C172.555,194.857,165.026,219.818,160.27,242.389Z" transform="translate(-159.781 -171.87)" fill="#ffb5b5" fill-rule="evenodd"/></g><g transform="translate(28.984 10.06)"><path d="M203.259,182.686c-1.6,2.849-13.067,2.029-19.355-.367-3.747-1.429-6.832-6.869-8.131-13.179-3.132-15.217-3.314-26.506,8.055-30.069,0,0,15.832-7.076,22.538,4.679,6.082,10.66,4.793,18.9,1.644,26.054C207.156,171.676,204.265,180.9,203.259,182.686Z" transform="translate(-173.937 -136.96)" fill="#ffb5b5" fill-rule="evenodd"/></g><g transform="translate(32.585 3.035)"><path d="M176.525,135.912c-1.078.851-1.132,13.5,10.641,21.288,16.206,10.714,17.566,25.613,17.566,25.613s17.721-10.3,14.462-25.018C214,134.347,186.228,128.26,176.525,135.912Z" transform="translate(-176.075 -132.79)" fill="#ff8b8b" fill-rule="evenodd"/></g><g transform="translate(42.338 42.44)"><path d="M200.675,172.723c-.035-1.673-.035-9.585-1.459-11.3-4.68-5.636-14.759-7.865-14.388-.906.376,6-.394,16.031-.78,21.384-.258,3.594-3.557,6.456-1.528,10.736C185.381,198.665,201.25,199.668,200.675,172.723Z" transform="translate(-181.864 -156.178)" fill="#ffb5b5" fill-rule="evenodd"/></g><g transform="translate(21.39 66.861)"><path d="M185.9,271.469c-10.742-1.909-17.409-11.821-16.356-39.645.743-19.628,3.275-36.7,17.37-52.089,3.1-3.378,8.363-7.487,13.135-8.584,6.207-1.43,11.989.768,15.337,1.228,4.869.669,5.531,11.63,7.464,19.45.179.721,5.08,11.5,4.812,12.227-3.385,9.2-6.392,22.11-16.066,40.264C207.448,252.09,194.085,272.925,185.9,271.469Z" transform="translate(-169.43 -170.673)" fill="#ffb5b5" fill-rule="evenodd"/></g><g transform="translate(21.221 134.375)"><path d="M183.056,246.478s23.373,72.26,26.03,87.09c1.429,7.969,4.872,16.055,5.28,24.184,1.072,21.214,2.564,80.585,1.2,94.89-.074.777-3.643,13.59-3.093,22.234.509,8,2.836,9.445,3.365,10.21,5.273,7.622,8.722.44,9.5-11.514.558-8.618-1.282-22.317-.81-24.238,2.785-11.391,14.383-45.116,15.915-52.319,3.872-18.228-1.825-36.54-8.348-52.593-1.306-3.211,5.572-30.032,7.422-58.889,1.6-24.888.837-57.565-28.962-74.732-1.363-.783-41.219,6.748-41.219,6.748S171.4,229.094,183.056,246.478Z" transform="translate(-169.33 -210.745)" fill="#ffb5b5" fill-rule="evenodd"/><g clip-path="url(#f)"><g transform="translate(41.667 240.558)"><path d="M203.737,392.892c-8.436-.131-9.735-13.246-9.544-17.537,0,0-.762-20.366,1.38-20.081,2.7.357,1.565,8.512,1.843,12.7.462,7.009,2.138,12.72,5.154,12.631,6.561-.2,3.653-16.707,4.546-25.3,0,0,3.265-5.279,3.872,2.357C211.576,365.058,212.068,393.021,203.737,392.892Z" transform="translate(-194.061 -353.525)" fill="#002d8b" fill-rule="evenodd"/></g></g></g><g transform="translate(64.895 66.464)"><path d="M196.145,172.211s-3.959,33.139,4.793,44.316C212.746,231.6,227,243,229.252,242.531c18.648-3.878,23.759-49.016,26.463-64.842.369-2.152-3.317-14.874-7.989-.509-4.835,14.86-19,43.96-19,43.96S208.956,171.955,196.145,172.211Z" transform="translate(-195.252 -170.438)" fill="#ffb5b5" fill-rule="evenodd"/></g><g transform="translate(119.201 54.381)"><path d="M233.268,181.514s17.285-3.568,29.9-5.951c0,0,2.7-1.132-2.227-.9s-11.388.794-11.388.794,12.028-3.208,15.839-4.1-5.89-1.427-15.418,1.56c0,0,11.342-3.563,15.443-5.253,2.505-1.034-5.041-.881-16.132,2.763,0,0,8.409-3.333,12.86-5.754,2.52-1.371,2.217-3.494-14.04,3.5-1.646.708-3.061,1.592-5.137,1.641,0,0,3.422-2.251,3.159-5.642,0,0-1.129-.686-2.229.839a13.138,13.138,0,0,1-6.588,4.45c-3.691,1.279-7.475,1.259-8.926,5.647C224.764,186.038,233.268,181.514,233.268,181.514Z" transform="translate(-227.485 -163.266)" fill="#ffb5b5" fill-rule="evenodd"/></g><g transform="translate(19.111 67.157)"><path d="M188.984,172.374s-17.236,18.2-19.83,80.352c-2.7,64.747.537,139.862.537,139.862l77.747,5.4s16.354-120.6-28.061-157.195l4.852-19.473s-17.91-20.149-9.155-50.14l-5.218-.332s-4.532,19.739-16.077,20.4-.421-18.789-.421-18.789Z" transform="translate(-168.077 -170.849)" fill="#0052ea" fill-rule="evenodd"/></g><g transform="translate(11.991 61.82)"><rect width="54.298" height="80.979" transform="translate(0 13.444) rotate(-14.335)" fill="#002d8b"/></g><g transform="translate(5.101 96.387)"><path d="M193.942,193.384s-23.876,22.1-30.007,29.388c-8.175,9.716-2.675,23.656,2.371,22.432,9.529-2.31,28.189-24.3,37.588-45.2C213.747,178.1,193.942,193.384,193.942,193.384Z" transform="translate(-159.762 -188.198)" fill="#ffb5b5" fill-rule="evenodd"/></g><g transform="translate(38.044 72.956)"><path d="M190.11,209.762s9.243-15.266,17.682-25.72c0,0,1.348-2.734-2.467.79s-8.625,8.357-8.625,8.357,7.358-10.719,9.784-14.014-5.819,2.854-11.319,11.7c0,0,6.54-10.537,8.608-14.67,1.262-2.526-4.729,2.716-11.007,13.148,0,0,4.34-8.365,6.151-13.317,1.026-2.807-.79-4.3-8.768,12.319-.809,1.68-1.3,3.346-2.943,4.793,0,0,1.105-4.118-1.614-6.65,0,0-1.42.217-1.184,2.184a12.954,12.954,0,0,1-2.039,8.02c-2.04,3.526-2.679,5.75-3.046,10.567S190.11,209.762,190.11,209.762Z" transform="translate(-179.315 -174.29)" fill="#ffb5b5" fill-rule="evenodd"/></g></g><g transform="translate(528.945 187.452)"><path d="M387.408,325.212c-7.865-15.975.521-26.315,11.839-32.288,3.937-2.079,13.746-7.828,8.21-14.788-2.175-2.736-7.251-.475-8.495.263-5.311,3.156-6.812,8.749-10.966,12.773-1.506,1.461-4.215,4.322-6.391-.022-2.3-4.594.162-8.488,1.9-11.565,4.291-7.588,12.335-11.9,14.963-20.683.891-2.98,1.882-6.434,1.041-10.05-.143-.615-.815-3.333-1.767-3.681-3.324-1.216-6.52,1.481-8.028,2.965-4.84,4.778-6.5,11.95-8.244,18.654-.421,1.617-1.048,10.161-4.534,6.311-5-5.525-4.677-12.067-3.752-17,2.133-11.389,9.988-20.11,13.659-30.8,1.365-3.976,3.2-8.153,2.632-12.953-.125-1.051-.886-4.2-2.37-4.97-3.285-1.7-6.315,2.054-7.469,3.518-4.682,5.941-4.67,14.656-7.245,21.783-.684,1.89-1.943,9.246-6.241,6.429-5.685-3.723-7.235-11.292-8.21-15.97-2.7-12.917-2.763-25.72-4.3-38.436-.62-5.154-2.428-16.306-10.284-19.857-2.755-1.245-4.4,1.238-5.054,2.814-1.8,4.325-.389,10.793.435,16,2.615,16.563,9.583,32.529,18.083,49.212a148.764,148.764,0,0,1,7.627,16.737c.428,1.186,2.264,4.665,1.835,5.841-.093.251-2.519-.829-2.669-.9a25.418,25.418,0,0,1-8.052-6.5c-6.857-7.651-11.121-16.419-17.8-24.172-2.207-2.564-6.736-6.925-9.762-5.331-4.4,2.317-1.705,10.407.632,15.121,6.674,13.462,21.091,21.892,32.03,32.928A63.4,63.4,0,0,1,370.357,279c.216.371,2.47,4.082,1.916,4.311-2.12.883-6.859-2.344-8.914-3.787-7.627-5.353-13.657-12.835-20.679-18.872-1.444-1.242-6.97-6.714-9.15-6.225-5.479,1.227.505,10.148,3.408,13.644,7.577,9.128,16.213,14.019,26.559,19.51,3.542,1.88,11.576,5.572,12.35,9.811.313,1.713-7.42-1.346-7.893-1.552-7.2-3.108-14.046-7.634-21.3-10.586-1.622-.659-6.411-2.918-6.876-.881-.871,3.818,6.647,8.729,10.072,10.645,10.763,6.016,23.23,8.244,30.259,19.185Z" transform="translate(-325.654 -164.502)" fill="#ff8b8b" fill-rule="evenodd"/></g><g transform="translate(559.578 187.826)"><path d="M382.479,177.814c4.273-12.73-3.924-16.016-4.51-10.552-.536,5.006,3.565,9.854,4.308,10.687a.927.927,0,0,0-.231.295c-.418.851-1.019,2.084-1.019,2.084q-.781,1.9-1.476,3.83c-.876-1.924-4.14-8.493-8.645-10.343-5.243-2.153-4.455,9.172,8.471,10.828-1.088,3.053-2.034,6.143-2.879,9.251-1.555-3.22-5.112-9.748-9.317-11.967-5.491-2.9-3.835,10.287,8.9,13.526q-.245.948-.482,1.894l-.078.313q-.836,3.546-1.572,7.1c-2.7-2.372-10.478-8.791-16.408-9.556-7.1-.915,1.446,12.262,16.2,10.6q-1.041,5.156-1.85,10.326c-3.617-2.647-13.617-9.56-20.251-10.227-7.959-.8,4.436,13.642,20.054,11.516q-.836,5.6-1.361,11.206c-4.537-1.719-17.847-6.36-24.608-4.441-7.9,2.241,10.7,14.794,24.448,6.249q-.427,5.163-.554,10.313-.061,2.552-.029,5.1c-4.423-2.2-14.432-6.557-21.707-5.043-9.236,1.924,3.188,15.472,21.753,7.294.135,4.819.512,9.6,1.114,14.3-3.565-.783-13.708-2.4-21.844,2.21-9.87,5.6,1,16.285,22.012-.933.553,4.042,1.27,8.018,2.14,11.9-3.36.61-14.471,3.132-21.153,10.7-7.809,8.85,6.578,13.915,21.394-9.647,1,4.311,2.19,8.5,3.552,12.528,0,0,0,.241.866.6l.357-1.087c-.817-3.137-1.523-6.326-2.15-9.546,0,0-1.033-4.847-1.663-8.807q-.414-2.616-.741-5.267c19.37,12.458,31.028-.414,21.65-3.974-7.792-2.955-18.167.792-21.842,2.33-.591-5.279-.922-10.633-1.031-15.984,14.328,12.862,32.984,2.116,24.826-1.7-7.287-3.41-21.488-.047-24.841.822-.067-4.382.013-8.759.222-13.079,9.647,10.2,31.877,2.485,25.471-1.277-5.582-3.279-20.251-1.74-25.343-1.083q.2-3.3.49-6.547c14.176,4.133,31.391-7.577,23.466-8.074-6.527-.411-18.521,4.424-23.318,6.493.406-4.167.925-8.24,1.535-12.176l0-.012c13.327,3.927,26.617-6.9,19.495-7.331-5.772-.349-15.349,3.995-19.273,5.919.372-2.359.768-4.717,1.2-7.075.147-.8.3-1.606.455-2.409,12.626,3.826,22.646-6.244,16.23-6.615-5.2-.3-12.953,3.755-16.007,5.487.745-3.73,1.6-7.457,2.64-11.142,12.062,3.771,19.31-5.615,13.524-5.934-4.758-.263-11.061,3.648-13.3,5.154.613-2.1,1.291-4.188,2.052-6.254.057-.2.12-.4.182-.6q.286-.917.608-1.826l-.008-.029c11.841.954,14.89-8.864,9.819-7.914-4.606.864-9.063,6.613-9.88,7.715l-.039-.121Z" transform="translate(-343.836 -164.723)" fill="#002d8b" fill-rule="evenodd"/></g><g transform="translate(583.661 228.874)"><path d="M397.329,189.249c5.272,2.857,9.9,31.52-.509,71.146-5.674,21.606-25.766,52.677-33.388,49.453-5.356-2.266-9.3-26.408,1.762-66.6C370.994,222.183,392.059,186.391,397.329,189.249Z" transform="translate(-358.129 -189.087)" fill="#a7e5ec" fill-rule="evenodd"/><g clip-path="url(#g)"><g transform="translate(-5.884 -8.808)"><path d="M394.011,214.477q2.333-8.459,4.463-17.012c1.021-4.052,2.62-7.72,3.622-11.834.194-.792.039-2.384-.477-1.523,0,0,.005.2.008.315-.142,1.774-4.561,15.724-7.508,26.253q-.786,2.805-1.587,5.607c.121-7.091-1.523-11.645-2.6-17.19,0,0-1.437-6.78-2.116-10.35,0,0-.136-.815-.566.13l.839,6.6c.327,2.576.265,2.153.527,3.949.384,2.62.8,5.23,1.2,7.846.564,3.739,1.548,7.536,1.619,11.083.1.709-.064-.258.047.489a.785.785,0,0,0,.2.406q-2.851,9.851-5.882,19.611c-.1-8.427-3.543-26-5.735-36.545a22.064,22.064,0,0,0-1.656-4.327c-.158-.034-.573-.268-.472-.1,0,0,1.6,6.985,2.32,11.153,1.516,8.965,2.537,17.78,4.377,27.1.167.918.057.947.435,2.9.01.044.163.655.328,1.112q-.715,2.292-1.442,4.581c-.45-4.352-1.461-9.211-1.991-12.911-.794-5.415-1.553-10.84-2.7-16.189-.19-.895-1.147-5.282-1.078-5.622.435-2.116-.583-.524-.588-.66a14.566,14.566,0,0,0,.109,3.044c.109.718.253,1.429.394,2.136,1.749,8.662,2.574,14.36,3.621,21.353q.093.586.189,1.174c.2,1.151.4,2.3.593,3.451q.091.569.177,1.137c.248,1.73.492,3.83.635,5.1q-2.762,8.658-5.666,17.231c-1.127-14.889-3.793-29.606-5.766-42.467-.335-2.295-.163-1.912-.163-1.912s.116-.856-.654-.233c-.745,4.22.984,10.132,1.813,16.174,1.267,9.58,2.14,18.533,3.579,28.95.115.864.216,1.552.3,2.1q-1.107,3.242-2.234,6.473c-1.424-14.727-2.714-30.692-4.846-43.541-.937-5.455-.841-.612-.832-.581s.025.1.017.071c.059.256-.236-2.335.369,2.837.63,5.7.753,11.367,1.275,17.335,0,0,.633,6.6,1.034,10.5.58,5.24,1.279,10.454,1.934,15.706.278,2.456.364-.868.315,1.427l-.253-.943q-1.44,4.094-2.911,8.166c-.153-.157-.261-.243-.254-.206l.007.019-.007-.019c-.372-.923-.345-1.08-.61-1.661-2.684-5.637-4.18-12.23-6.333-21.094-1.038-4.342-1.983-8.722-2.645-13.079,0,0-.13-1.034-.743.1.729,10.314,2.878,18.167,5.061,26.89,1.031,4,2.74,8.124,5,10.39l.029.029q-2.029,5.6-4.116,11.159c-.1-.184-.219-.386-.356-.612,0,0-1.983-4.22-2.977-6.67a66.218,66.218,0,0,1-4.576-15.136c-.167-.97-.374-1.752-1.036-.379.7,5.583,2.505,11.406,5.422,18.285a26.992,26.992,0,0,0,1.97,3.7c.613.969.967,1.533,1.168,1.838q-1.493,3.96-3.011,7.9c-2.167,5.68-4.084,11.48-6.21,17.205-.49,1.4-1.152,3.838-1.152,3.838-.5,1.232-.13.494-.581,1.055l-.039.753s.465.2.726-.1c1.484-1.769,1.889-4.49,2.927-7.246q3.273-8.764,6.567-17.719l.051-.138.152-.416a24.862,24.862,0,0,0,9.408,1.142c3.181-.4,6.358-.834,9.523-1.43,0,0,4.445-1,8.584-2.411l.762-.63s-4.006.613-6.849,1.028c-6.067.886-12.06,1.675-18.282,2.14-.657.049-1.316.042-1.975.034-1.39-.02.421.04-1.094-.128l.017,0q1.825-4.981,3.643-10.02a32.984,32.984,0,0,0,6.234.265q4.354-.4,8.662-1.233c4.958-.96,10.138-1.464,14.557-4.3.229-.147.536-.337.507-.33,0,0,1.117-1.555-1.206-.3-7.294,3.789-15.748,4.273-23.865,5.016-1.506.12-3.134-.517-4.47-.276q.887-2.461,1.769-4.94c.755-.147.716-.691.44-1.237q1.112-3.131,2.217-6.281c.1.062.168.1.168.1,8.613-.163,17.972-.318,26.676-3.862,2.588-1.055,3.58-1.932,7.528-4.027l.2-.512a.752.752,0,0,0-.613-.212c-3.4.969-6.626,3-10.087,4.207-7.7,2.694-15.868,2.743-23.582,3.469.116-.334.234-.667.35-1,.977-.317,2.659-1.112,4.192-1.7,3.381-1.265,6.829-2.224,10.22-3.456l2.173-.785a112.736,112.736,0,0,0,14.254-6.247s1.99-1.22,3.346-2.14l.162-.608a.779.779,0,0,0-.8-.037,136.369,136.369,0,0,1-16.631,7.176s-3.784,1.488-6.192,2.462c-1.754.7-3.536,1.275-5.294,1.946-1.622.628-3.531,1.009-4.915,1.921q1.2-3.442,2.381-6.906a.33.33,0,0,0,.04.088l.163-.682q1.284-3.771,2.549-7.563a78.68,78.68,0,0,1,7.425-3.535c8.062-3.166,15.81-7.511,24.088-10.552l.226-.532a.8.8,0,0,0-.8-.2c-10.067,3.183-20.4,6.716-29.828,12.818a5.874,5.874,0,0,0-.615.5q1.079-3.255,2.145-6.527A42.342,42.342,0,0,0,387.5,249.8c7.765-5.135,16.034-9.322,22.971-16.2l.335-.888a.691.691,0,0,0-.738.131c-8.545,7.568-18.331,12.673-27.286,18.985l-.02.02q.571-1.759,1.137-3.525a1.083,1.083,0,0,0,.261-.79V247.5q2.661-8.33,5.184-16.772c.514-.4,1.248-1.024,2.29-1.98,4.557-4.175,9.7-7.351,14.329-11.219a34.26,34.26,0,0,0,2.531-2.365c1.762-1.815,4.07-4.815,4.07-4.815s.364-.5-.379-.534a69.326,69.326,0,0,1-7.381,6.982c-5.038,4.173-10.645,7.454-15.081,12.651q1.9-6.389,3.7-12.837c.345-.43.829-1.075,1.5-2.02,4.151-5.673,10.111-8.886,15.312-13.076,0,0,1.719-2.371-.384-.881-1.523,1.08-3.6,2.581-3.6,2.581C400.969,207.183,397.216,209.978,394.011,214.477ZM369.3,228.215m32.837-43.5-.507-.288c0-.019,0-.037,0-.054C401.633,184.551,401.632,184.517,401.628,184.423Z" transform="translate(-354.637 -183.86)" fill="#002d8b" fill-rule="evenodd"/></g></g></g><g transform="translate(570.69 336.196)"><rect width="33.21" height="42.602" fill="#002b85"/></g><g transform="translate(28.798 378.836)"><rect width="759.613" height="10.298" fill="#00b6ca"/></g><g transform="translate(38.738 227.513)"><g transform="translate(77.973)"><g transform="translate(18.914 67.111)"><path d="M142.243,314.147s2.207-44.12,2.608-47.323c1.555-12.392,2.522-23.392-3.356-28.735-3.277-2.979-7.257-6.95-12.463-9.275-2.777-1.24-15.524-1.19-22.614,3.085-4.723,2.847-8.567,16.282-10.444,25.222C93.606,268.4,92.2,299.563,92.2,299.563c4.145,12.085,43.025,21.78,50.039,14.584" transform="translate(-92.204 -228.112)" fill="#ffb5b5"/></g><g transform="translate(7.104 67.205)"><path d="M111.384,231.56s-5.22,8.965,2.406,11.809c18.174,6.778,20.324-15.2,20.324-15.2,4.318,1.156,16.986,7.046,18.383,14.939,3.4,19.239,2.022,100.5,2.022,100.5l-69.325-3.942s3.784-59.563,6.278-77.269C95.569,233.285,111.384,231.56,111.384,231.56Z" transform="translate(-85.194 -228.168)" fill="#002d8b"/></g><path d="M130.222,249.675c3.4,3.784,11.868-7.553,14.875-10.694s5.589-7.4,4.214-12.338a9.562,9.562,0,0,1-.66-3.026,5.073,5.073,0,0,1,1.323-2.59c3.668-4.915,1.842-12.636-.591-19.517a12.2,12.2,0,0,0-2.611-4.562,12.342,12.342,0,0,0-5.467-2.957c-13.128-3.865-22.784,2.691-35.927-.908-3.843-1.053-7.6-2.9-11.443-3.985s-8-1.319-10.726.719-3.166,6.935-.128,9.92c1.956,1.921,4.652,2.537,7.127,3.038-4.185,1.951-4.579,8.267-1.717,13.064s8.1,8.06,13.206,9.664c3.806,1.2,7.769,1.671,11.344,3.8C119.19,232.957,125.355,244.267,130.222,249.675Z" transform="translate(-80.978 -188.28)" fill="#002d8b"/><g transform="translate(33.367 45.63)"><path d="M109.8,250.162c11.307-1.617,12.949-12.464,12.949-12.464L118.9,221.547c-.595-4.729-6-7.255-11.566-5.75s-7.027,7.733-6.431,12.464l.863,17.414C102.364,250.4,106.785,250.593,109.8,250.162Z" transform="translate(-100.782 -215.362)" fill="#ffb5b5"/></g><g transform="translate(14.214 22.993)"><path d="M89.68,204.021s1.09,24.17,7.361,31.533c0,0,4.647,8.256,18.816,11.379,0,0,17.327-35.617,2.229-39.863C84.678,197.678,89.68,204.021,89.68,204.021Z" transform="translate(-89.414 -201.927)" fill="#ffb5b5" fill-rule="evenodd"/></g><g transform="translate(14.481 9.97)"><path d="M98.606,235.891c3.882,9.614,8.488,13.337,15.052,14.166,5.792.731,11.418-2.515,13.932-4.357,8-5.868,16.833-35.29,3.84-45.861s-33.1-4.34-39.674,2.862S95.234,227.546,98.606,235.891Z" transform="translate(-89.573 -194.197)" fill="#002d8b"/></g><g transform="translate(12.757 9.057)"><path d="M91.231,200.664c3.178-3.848,8.645-5.826,13.925-6.5a92.319,92.319,0,0,1,14.74-.4c4.655.163,9.725.529,14.289,2.19,8.609,3.13,7.561,13.789,5.548,20.122-1.034,3.25,1.287,6.61-1.754,8.411-1.3.772-3.88.421-5.506.153-1.946-.318.559,10.919-3.7,11.457-.505.064-4.325-3.843-5.841-10.026-1.1-4.5.3-9.925-.015-12.705-.16-1.4-.873-3.919-1.9-3.966-1.427-.716-2.824.02-3.991.62-1.318.679-2.468,1.7-3.715,2.483a30.224,30.224,0,0,1-6.977,3.356c-4.32,1.368-10.628,1.633-14.67-1.853a8.158,8.158,0,0,1-2.962-6.38.748.748,0,0,1-.15-.531,12.39,12.39,0,0,1,.551-2.6,22.344,22.344,0,0,1,1.4-3.88c.135-.288.554-.19.723.047-.158.19-.312.388-.457.588l-.62,2.435a10.468,10.468,0,0,0-.886,3.242c0,.062-.005.126-.005.189v.083l-.03.12c.008-.131.02-.261.035-.391a16.218,16.218,0,0,1,1.376-5.494A11.69,11.69,0,0,0,89.1,204.5a12.772,12.772,0,0,0-.4,3.13.965.965,0,0,0,.6.359c-.025-.263-.037-.527-.037-.787l.891-3.513a11.119,11.119,0,0,1,.637-1.195c.16-.516.329-1.021.492-1.516A.34.34,0,0,0,91.231,200.664Z" transform="translate(-88.549 -193.655)" fill="#002d8b"/></g></g><g transform="translate(33.157 159.046)"><path d="M56.407,326.07l81-1.329s14.926-.853,25.436-5.735c8.652-4.018,12.864-12.722,12.864-12.722l-2.322-5.115-48.1-18.489-70.909,4.569Z" transform="translate(-54.378 -282.679)" fill="#002d8b" fill-rule="evenodd"/></g><g transform="translate(104.361 294.28)"><path d="M107.46,363.133c1.7-2.258.322,16.52-.93,18.735-.885,1.565-9.339,3.442-8.96,1.67,2.069-9.679-1.537-16.585-.839-18.425C97.671,362.635,105.805,365.327,107.46,363.133Z" transform="translate(-96.64 -362.945)" fill="#ffb5b5" fill-rule="evenodd"/></g><g transform="translate(25.562 294.28)"><path d="M60.692,363.133c1.7-2.258.32,16.52-.932,18.735-.885,1.565-9.339,3.442-8.96,1.67,2.069-9.679-1.537-16.585-.839-18.425C50.9,362.635,59.035,365.327,60.692,363.133Z" transform="translate(-49.87 -362.945)" fill="#ffb5b5" fill-rule="evenodd"/></g><g transform="translate(78.799 307.961)"><path d="M111.252,374c.2-.729,1.449-5.033-2.622-1.648-2.084,1.732-9.213,5.533-18.4,4-4.259-.713-5-.635-7.327.733-1.611.949-.9,2.792-1.43,4.027,26.143,3.685,37.432-1.358,38.678-2.1-.293-3.915-2.044-3.708-1.318-5.45C118.269,372.561,113.1,373.413,111.252,374Z" transform="translate(-81.468 -371.066)" fill-rule="evenodd"/><g clip-path="url(#h)"><g transform="translate(-10.719 3.459)"><path d="M116.97,377.166q1.188-.419,2.357-.922c2.63-.987,6.288-2.724,6.424-2.788,2.657-1.294,8.006,1.262-3.029,5.447-13.628,6.662-28.409,5.181-42.4,1.471l-4.771-1.633-.441-.763,2.034-.172c2.18.411,4.332.866,6.52,1.36l-2.674-1.533c-.682-.748-.647-1.092.231-1.82,1.707-1.021,2.3.3,2.3.3a58.872,58.872,0,0,0,8.094,2.318c2.531-.539,11.684-4.246,18.134-2.7,0,0,3.479.451,5.27.9C115.675,376.806,116.327,376.979,116.97,377.166Zm-22.005,1.867a46.836,46.836,0,0,0,19.217-.991,63.273,63.273,0,0,0-6.753-1.7,12.478,12.478,0,0,0-6.148.536c-1.742.521-2.593,1.019-3.526,1.311S95.9,378.762,94.965,379.033Zm17.087-2.554,1.8.3S111.746,376.381,112.052,376.479Z" transform="translate(-75.106 -373.119)" fill="#eceeee"/></g></g></g><g transform="translate(0 307.961)"><path d="M64.482,374c.2-.729,1.449-5.033-2.623-1.648-2.082,1.732-9.211,5.533-18.4,4-4.259-.713-5-.635-7.327.733-1.612.949-.9,2.792-1.43,4.027,26.142,3.685,37.432-1.358,38.678-2.1-.293-3.915-2.045-3.708-1.319-5.45C71.5,372.561,66.324,373.413,64.482,374Z" transform="translate(-34.698 -371.066)" fill-rule="evenodd"/><g clip-path="url(#i)"><g transform="translate(-10.719 3.459)"><path d="M70.2,377.166q1.185-.419,2.355-.922c2.632-.987,6.288-2.724,6.426-2.788,2.655-1.294,8.006,1.262-3.029,5.447-13.628,6.662-28.411,5.181-42.405,1.471l-4.77-1.633-.441-.763,2.034-.172c2.178.411,4.33.866,6.52,1.36l-2.674-1.533c-.682-.748-.647-1.092.229-1.82,1.708-1.021,2.3.3,2.3.3a58.9,58.9,0,0,0,8.1,2.318c2.531-.539,11.683-4.246,18.132-2.7,0,0,3.481.451,5.27.9Q69.233,376.887,70.2,377.166Zm-22.005,1.867a46.828,46.828,0,0,0,19.215-.991,63.346,63.346,0,0,0-6.751-1.7,12.475,12.475,0,0,0-6.148.536c-1.744.521-2.595,1.019-3.528,1.311S49.128,378.762,48.195,379.033Zm17.086-2.554,1.8.3S64.974,376.381,65.281,376.479Z" transform="translate(-28.336 -373.119)" fill="#eceeee"/></g></g></g><g transform="translate(2.21 83.626)"><g transform="translate(0 0.121)"><path d="M132.085,305.568l-5.654-66.4L36.01,237.987,49.6,305.57Z" transform="translate(-36.01 -237.987)" fill="#ffb5b5" fill-rule="evenodd"/></g><g transform="translate(7.118)"><path d="M136.31,305.495,129.6,239.388l-89.369-1.473L53.825,305.5h48.72Z" transform="translate(-40.235 -237.915)" fill="#ff8b8b" fill-rule="evenodd"/></g><g transform="translate(16.617 6.707)"><path d="M128.048,294.676l-7.305-50.167L45.873,241.9l9.721,52.58Z" transform="translate(-45.873 -241.896)" fill="#fff" fill-rule="evenodd"/></g></g><g transform="translate(95.319 160.475)"><path d="M104.674,283.565c-5.893,1.125-15.551,24.693-12.971,47.229,2.248,19.658,6.116,97.687,6.116,97.687l17.851-.745s10.655-86.214,11.4-103.7S110.569,282.438,104.674,283.565Z" transform="translate(-91.274 -283.527)" fill="#002d8b" fill-rule="evenodd"/></g><g transform="translate(17.791 163.333)"><path d="M60.892,285.266c-5.9,1.125-17.854,21.83-15.275,44.366,2.249,19.658,5.946,98.376,5.946,98.376l15.2-.438S80.238,340.362,80.988,322.88,66.787,284.143,60.892,285.266Z" transform="translate(-45.258 -285.224)" fill="#002d8b" fill-rule="evenodd"/></g><g transform="translate(82.996 71.781)"><g transform="translate(53.504 2.848)"><path d="M121.316,232.628c4.423.064,18.619-2.992,21.616,28.913,1.38,14.685-1.034,39.061-11.908,51.4-11.986,13.595-14.176,2.312-12.326-12.38,1.154-9.162.214-19.34-2.285-39.386C114.419,245.2,116.9,232.564,121.316,232.628Z" transform="translate(-115.716 -232.574)" fill="#ffb5b5" fill-rule="evenodd"/></g><g transform="translate(26.397 49.108)"><path d="M143.466,303.112c2.106-2.246,10.52-7.905-4.2-24.58-6.776-7.676-20.3-18.06-31.8-18.477-12.687-.46-8.028,6,.313,12.063,5.2,3.779,9.9,9.091,18.855,19.876C133.76,300.588,141.362,305.354,143.466,303.112Z" transform="translate(-99.627 -260.031)" fill="#ffb5b5" fill-rule="evenodd"/></g><g transform="translate(50.696)"><path d="M115.08,285.893a116.646,116.646,0,0,0-.76-40.656c-1.825-9.231,5.762-17.851,16.626-12.914,20.1,9.132,13.7,51.68,13.46,51.7C138.076,291.317,115.08,285.893,115.08,285.893Z" transform="translate(-114.049 -230.884)" fill="#002d8b" fill-rule="evenodd"/></g><g transform="translate(0 39.294)"><path d="M106.546,264.17l-.037-.094a52.832,52.832,0,0,1-1.675-5.551c-.091-.923-.165-2.328-.18-2.455-.244-1.956.259-1.638.35-1.688,1.98-1.092,2.788,3.159,6.013,6.48a15.944,15.944,0,0,0,2.258,1.841c.809-.015,8.032,1.621,8.8,1.688.475.04,6.633,12.045,2.694,12.457-10.518,1.1-15.883,1.024-17.643,2.013a48.079,48.079,0,0,0-7.676,5.61c-2.1,1.808-7.73,7.748-7.883,7.128a3.457,3.457,0,0,1,.751-2.408,48.155,48.155,0,0,1,5.108-7.174q.986-1.074,1.964-2.146c.339-.369.964-1.152.964-1.152s-.782.6-1.176.891c-.755.559-1.451,1.316-2.224,1.835-2.28,1.525-8.136,7.359-9.187,7.759-.291.11-.981.58-1.136-.052-.214-.883,3.68-5.58,4.808-6.722,2.376-2.4,4.884-5.161,5.513-5.848.076-.083.664-.6.671-.733.01-.2-.7.3-.743.315-.7.263-12.946,8.426-12.923,7.871.059-1.259,1.235-2.44,2.116-3.4a45.9,45.9,0,0,1,7.61-6.134c.9-.639,1.8-1.243,2.682-1.941.136-.109.981-.556.992-.787.007-.143-.61.334-.7.369-.556.211-1.279.758-1.911,1a55.038,55.038,0,0,0-6.855,3.624c-.881.5-3.186,2.1-3.4,1.732-.687-1.188,8.109-7.305,9.848-8.283A90.63,90.63,0,0,1,106.546,264.17Zm-1.3-9.127" transform="translate(-83.959 -254.206)" fill="#ffb5b5" fill-rule="evenodd"/></g></g><g transform="translate(80.308 211.228)"><path d="M99.886,313.651l-17.522,1.211,4.66,113.821,4.872-.061Z" transform="translate(-82.364 -313.651)" fill="#ffb5b5" fill-rule="evenodd"/></g><g transform="translate(142.375 201.508)"><path d="M136.8,307.882,119.2,314.815l4.66,119.376,4.872-.064Z" transform="translate(-119.203 -307.882)" fill="#ffb5b5" fill-rule="evenodd"/></g><g transform="translate(40.569 206.473)"><path d="M76.3,310.829l-17.522,1.208,4.66,113.582,4.872-.062Z" transform="translate(-58.777 -310.829)" fill="#ffb5b5" fill-rule="evenodd"/></g><g transform="translate(25.225 62.308)"><path d="M111.049,237.378c15.9-17.119,86.933-15.211,91.922.162s.288,110.382-14.378,134.278c-13.276,21.631-59.984,7.374-73.618,9.095s-57.167-9.063-57.167-9.063-16.469-9.6-2.549-18.952l52.3-12.633S95.148,254.5,111.049,237.378Z" transform="translate(-49.67 -225.262)" fill="#a7e5ec" fill-rule="evenodd"/></g></g></g></svg>