<svg xmlns="http://www.w3.org/2000/svg" xmlns:xlink="http://www.w3.org/1999/xlink" width="584.325" height="636.542" viewBox="0 0 584.325 636.542"><defs><linearGradient id="a" y1="0.5" x2="1" y2="0.5" gradientUnits="objectBoundingBox"><stop offset="0" stop-color="#e79d5a"/><stop offset="1" stop-color="#f2d05f"/></linearGradient></defs><g transform="translate(-1495.696 -250.5)"><g transform="translate(1495.696 250.5)"><path d="M1846.746,520.317l-325.306,1.676A24.514,24.514,0,0,1,1496.8,497.6l-1.1-214.123a24.514,24.514,0,0,1,24.388-24.64l325.306-1.676a24.515,24.515,0,0,1,24.642,24.388l1.1,214.124A24.514,24.514,0,0,1,1846.746,520.317Z" transform="translate(-1495.696 -253.99)" fill="#9abbe0"/><rect width="91.284" height="20.613" transform="matrix(1, -0.005, 0.005, 1, 142.025, 0.47)" fill="#6d6865"/><g transform="translate(26.321 55.958)"><path d="M1621.145,367.948s.1,59.814-6.394,83.787l-14.064,8.9-49.748.256c9.322-25.2,9.194-92.633,9.194-92.633Z" transform="translate(-1550.94 -367.948)" fill="#fff"/><path d="M1655.3,552.481l-.047-9.035,14.109-.073Z" transform="translate(-1605.553 -459.791)" fill="#c7c7c7"/></g><g transform="translate(108.112 41.23)"><path d="M1771.171,337.035s.072,41.379-4.423,57.963l-9.728,6.16-34.415.177c6.448-17.433,6.361-64.082,6.361-64.082Z" transform="translate(-1722.605 -337.035)" fill="#fff"/><path d="M1794.8,464.695l-.033-6.251,9.761-.05Z" transform="translate(-1760.385 -400.572)" fill="#c7c7c7"/></g><g transform="translate(113.712 131.26)"><path d="M1775.157,525.993s.038,30.513-3.743,42.745l-8.17,4.547-28.884.149c5.422-12.86,5.371-47.259,5.371-47.259Z" transform="translate(-1734.36 -525.993)" fill="#fff"/><path d="M1794.957,620.141l-.023-4.609,8.193-.042Z" transform="translate(-1766.073 -572.849)" fill="#c7c7c7"/></g><g transform="translate(28.656 202.17)"><rect width="87.023" height="4.521" fill="#fff"/><g transform="translate(0 31.386)"><rect width="100.358" height="4.521" fill="#fff"/></g><g transform="translate(0 15.693)"><rect width="61.814" height="4.521" fill="#fff"/></g></g></g><g transform="translate(1567.438 371.96)"><g transform="translate(249.696 214.161)"><rect width="100.178" height="5.946" transform="translate(100.178 5.946) rotate(180)" fill="#dcd0c8"/></g><g transform="translate(327.67 235.584)"><rect width="8.779" height="270.441" fill="#6d6865"/></g><g transform="translate(195.741 212.475)"><rect width="69.634" height="8.493" transform="translate(69.634 8.493) rotate(180)" fill="#c6bbb5"/></g><g transform="translate(217.374 140.017)"><rect width="26.369" height="80.09" transform="translate(26.369 80.09) rotate(180)" fill="#e9a75b"/></g><g transform="translate(0 220.206)"><rect width="385.808" height="15.377" transform="translate(385.808 15.377) rotate(180)" fill="#a98e75"/></g><g transform="translate(417.229 101.305)"><path d="M2564.6,743.876s4.219,59.175-7.344,66.256c-7.242,4.437-36.123,19.4-35.265,22.208s16.305,24.968,16.305,24.968,55.473-36.53,57.26-48.042c1.748-11.246-2.73-86.645-10.353-90.117-5.711-2.6-8.726-.45-15.923,4.894C2559.175,731.541,2564.6,743.876,2564.6,743.876Z" transform="translate(-2521.968 -718.047)" fill="#b74242"/></g><g transform="translate(353.868 128.25)"><path d="M2393.872,790.38l-4.888-1.808s6.095-14.313,8.757-13.965a66.266,66.266,0,0,1,6.893,1.413Z" transform="translate(-2388.984 -774.601)" fill="#e3d6cd"/></g><g transform="translate(357.64 127.294)"><path d="M2396.9,791.8c.625-.466,10.392-19.2,10.392-19.2l20.87,2.836-11.276,22.2Z" transform="translate(-2396.9 -772.594)" fill="#c8995f"/></g><g transform="translate(391.606 467.555)"><path d="M2468.189,1488.293s1.725,11.972,1.941,13.772,19.188-1.06,19.188-1.06l1.537-14.255S2470.561,1486.6,2468.189,1488.293Z" transform="translate(-2468.189 -1486.746)" fill="#454971"/></g><g transform="translate(360.418 480.539)"><path d="M2435.657,1514.809s-6.011,7.214-11.826,10.359-14.952,4.391-18.39,7.646c-2.482,2.35-9.04,12.465,15.109,12.262s35.79,1.428,38.377-2.451-3.744-28.628-3.744-28.628S2449.464,1516.056,2435.657,1514.809Z" transform="translate(-2402.73 -1513.998)" fill="#2e3048"/></g><g transform="translate(270.044 467.668)"><path d="M2213.05,1488.531s1.723,11.972,1.941,13.771,19.188-1.059,19.188-1.059l1.537-14.256S2215.421,1486.842,2213.05,1488.531Z" transform="translate(-2213.05 -1486.984)" fill="#454971"/></g><g transform="translate(227.702 480.652)"><path d="M2168.26,1515.046s-6.009,7.216-11.825,10.361-27.21,5.727-30.649,8.982c-2.482,2.35-6.61,11.809,27.368,10.926,24.141-.629,35.792,1.428,38.379-2.451s-3.745-28.627-3.745-28.627S2182.4,1516.434,2168.26,1515.046Z" transform="translate(-2124.181 -1514.236)" fill="#2e3048"/></g><g transform="translate(254.804 262.276)"><path d="M2379.063,1055.9s-68.981,11.672-84.561,14.118-100.057,23.466-110.621,29.872c-8.411,5.1,4.41,127.552,7.405,174.272h33.274l2.412-140.143c39.929,1,68.421-9.341,97.5-4.925s53.316,10.694,71.793-14.091C2396.262,1115,2396.947,1061.311,2379.063,1055.9Z" transform="translate(-2181.065 -1055.9)" fill="#2e3048"/></g><g transform="translate(374.507 277.193)"><path d="M2442.608,1290.668l32.423-2,3.161-138.252c17.189.429,23.083-.66,36.991-2.348l26.181-60.854c-22.945,4.586-96.457,23.128-106.26,29.073C2426.694,1121.383,2439.612,1243.945,2442.608,1290.668Z" transform="translate(-2432.302 -1087.209)" fill="#2e3048"/></g><g transform="translate(380.877 2.501)"><path d="M2485.842,511.882s-25.287-6.989-34.935,12.642-5.273,56.844,7.472,60.345,31.07-.53,36.361-12.748,9.51-29.579,8.243-40.822S2492.557,514.568,2485.842,511.882Z" transform="translate(-2445.671 -510.673)" fill="#dba585"/></g><g transform="translate(398.771 55.575)"><path d="M2484.648,639.271s.278,14.929-1.367,18.112,35.212,2.384,35.212,2.384-5.809-17.927-2.513-33.2C2519.24,611.449,2484.648,639.271,2484.648,639.271Z" transform="translate(-2483.227 -622.067)" fill="#dba585"/></g><g transform="translate(380.092)"><path d="M2497.439,559.845s-1.969,4.007-11.509,3.36-22.124-12.157-26.175-13.185-4.291-3.333-4.291-3.333l-2.143,3.811-4.15.631s2.819-11.535-3.324-15.6,2.766-36.775,33.875-28.884c0,0,23.741,4.348,24.062,17.6S2502.049,552.823,2497.439,559.845Z" transform="translate(-2444.023 -505.425)" fill="#3e4148"/></g><g transform="translate(396.887 80.692)"><path d="M2479.274,684.6s.1-6.081,2.858-6.664,28.974-4.19,32.357-2.859l1.45,8.03S2509.422,687.118,2479.274,684.6Z" transform="translate(-2479.274 -674.784)" fill="#dcd0c8"/></g><g transform="translate(388.972 31.793)"><path d="M2462.99,578.9c.707-4.985,6.373-10.71,9.618-2.946s-2.19,19.068-5.831,18.462S2462.029,585.667,2462.99,578.9Z" transform="translate(-2462.661 -572.153)" fill="#dba585"/></g><g transform="translate(286.966 162.349)"><path d="M2248.68,846.176a.077.077,0,0,1,.045,0C2248.537,846.255,2248.509,846.262,2248.68,846.176Z" transform="translate(-2248.567 -846.17)" fill="#363957"/></g><g transform="translate(428.424 7.264)"><path d="M2545.465,520.676s30.831-1.451,5.382,46.679Z" transform="translate(-2545.465 -520.671)" fill="#3e4148"/></g><g transform="translate(397.916 460.411)"><path d="M2580.637,1508.393l-2.293,6.453-96.91-30.026,4.646-13.067Z" transform="translate(-2481.434 -1471.753)" fill="#8c8581"/></g><g transform="translate(394.594 363.521)"><rect width="11.013" height="105.357" transform="translate(11.013 105.357) rotate(180)" fill="#8c8581"/></g><g transform="translate(367.619 357.922)"><rect width="64.966" height="6.208" transform="translate(64.966 6.208) rotate(180)" fill="#5d5955"/></g><g transform="translate(302.23 459.592)"><path d="M2280.6,1507.493l2.294,6.453,96.908-30.026-4.258-13.886Z" transform="translate(-2280.604 -1470.034)" fill="#8c8581"/></g><g transform="translate(370.509 459.592)"><path d="M2423.91,1513.256v7.5l30.923-36.84-4.258-13.886Z" transform="translate(-2423.91 -1470.034)" fill="#8c8581"/></g><g transform="translate(293.173 496.97)"><path d="M2261.594,1557.54a9.057,9.057,0,1,0,9.057-9.056A9.058,9.058,0,0,0,2261.594,1557.54Z" transform="translate(-2261.594 -1548.484)" fill="#b9afaa"/></g><g transform="translate(369.74 496.97)"><path d="M2422.3,1557.54a9.056,9.056,0,1,0,9.057-9.056A9.057,9.057,0,0,0,2422.3,1557.54Z" transform="translate(-2422.296 -1548.484)" fill="#b9afaa"/></g><g transform="translate(488.063 496.97)"><path d="M2670.637,1557.54a9.057,9.057,0,1,0,9.057-9.056A9.057,9.057,0,0,0,2670.637,1557.54Z" transform="translate(-2670.637 -1548.484)" fill="#b9afaa"/></g><g transform="translate(322.72 334.406)"><path d="M11.758,0H142.151a11.757,11.757,0,0,1,11.757,11.757v0a11.756,11.756,0,0,1-11.756,11.756H11.758A11.758,11.758,0,0,1,0,11.758v0A11.758,11.758,0,0,1,11.758,0Z" transform="translate(153.908 23.516) rotate(180)" fill="#33457d"/></g><g transform="translate(49.361 235.584)"><rect width="8.779" height="270.441" transform="translate(8.779 270.441) rotate(180)" fill="#6d6865"/></g><g transform="translate(116.713 17.972)"><path d="M80.312,0h67.07a80.31,80.31,0,0,1,80.31,80.31v.005a80.31,80.31,0,0,1-80.31,80.31H80.312A80.312,80.312,0,0,1,0,80.312v0A80.312,80.312,0,0,1,80.312,0Z" transform="translate(227.691 160.624) rotate(180)" fill="url(#a)"/></g><g transform="translate(125.63 26.654)"><rect width="209.857" height="126.771" transform="translate(209.857 126.771) rotate(180)" fill="#f4f6ff"/></g><g transform="translate(183.421 199.773)"><path d="M2031.242,945.355V942.5s4.019-17.78,32.444-17.78,27.849,20.638,27.849,20.638Z" transform="translate(-2031.242 -924.717)" fill="#efc45e"/></g><g transform="translate(193.023 191.403)"><path d="M2102.431,918.161s-6.176-.479-8.437-1.845-15.8-10.466-18.978-9.011-24.336,7.939-23.6,11.033,2.691,2.8,4.185,2.248,16.855-3.771,18.212-3.229c0,0-15.091,5.506-15.154,9.522s3.16,5,4.591,6.514,3.15,5.292,7.038,5.583,22.865-6.316,26.772-6.615,11.135.242,11.627-.394S2102.431,918.161,2102.431,918.161Z" transform="translate(-2051.396 -907.148)" fill="#dba585"/></g><g transform="translate(237.674 89.013)"><path d="M2263.911,702.171c19.688-3.461,40.413-8.428,40.413-8.428l36.666-1.494s33.652,7.408,46.906,13.394c1.255.568,1.262,30.021,4.712,37.746l-10.987,23.18s-6.349,45.92-7.665,66.343c-.607,9.374,1.709,90.607,1.709,90.607s-3.295,1.626-28.319,4.384-87.553-1-87.947-3.952,12.109-110.062,12.663-115.608c.85-8.511-2.459-47.848-2.459-47.848-4.715,6.334-16.735,34.935-29.264,48.543-7.371,8.008-43.863,12.914-50.742,13.144-14.974.5-42.289,3.481-43.087,2.025-.639-.875-2.381-24.246-.668-24.818,1.5-.5,52.223-3.419,65.217-10.314,4.754-2.522,18.966-33.512,18.966-33.512S2253.05,707.051,2263.911,702.171Z" transform="translate(-2145.111 -692.248)" fill="#b74242"/></g><g transform="translate(406.445 170.935)"><path d="M53.068,0h0a53.07,53.07,0,0,1,53.07,53.07V93.934A53.068,53.068,0,0,1,53.07,147h0A53.068,53.068,0,0,1,0,93.934V53.068A53.068,53.068,0,0,1,53.068,0Z" transform="translate(106.138 147.001) rotate(180)" fill="#33457d"/></g><g transform="translate(419.347 264.779)"><path d="M2532.32,1148.444c15.644,0,28.337-5.256,37.726-15.622,21.215-23.424,17.4-64.6,17.23-66.344a5.9,5.9,0,0,0-11.752,1.161c.045.469,3.427,37.795-14.255,57.281-7.153,7.882-16.622,11.713-28.949,11.713a5.905,5.905,0,1,0,0,11.811Z" transform="translate(-2526.413 -1061.154)" fill="#33457d"/></g><g transform="translate(259.136 36.751)"><rect width="61.472" height="6.698" rx="3.349" transform="translate(61.472 6.698) rotate(180)" fill="#dedfe6"/></g><g transform="translate(259.136 51.118)"><path d="M3.348,0H58.124a3.349,3.349,0,0,1,3.349,3.349v0A3.349,3.349,0,0,1,58.124,6.7H3.349A3.349,3.349,0,0,1,0,3.349v0A3.348,3.348,0,0,1,3.348,0Z" transform="translate(61.472 6.697) rotate(180)" fill="#dedfe6"/></g><g transform="translate(259.136 67.594)"><path d="M30.736,0h0A30.736,30.736,0,0,1,61.472,30.736V45A30.735,30.735,0,0,1,30.737,75.735h0A30.735,30.735,0,0,1,0,45V30.736A30.736,30.736,0,0,1,30.736,0Z" transform="translate(61.472 75.735) rotate(180)" fill="#dedfe6"/></g><g transform="translate(137.254 36.751)"><path d="M53.288,0h2.894a53.288,53.288,0,0,1,53.288,53.288v0a53.288,53.288,0,0,1-53.288,53.288H53.289A53.289,53.289,0,0,1,0,53.288v0A53.288,53.288,0,0,1,53.288,0Z" transform="translate(109.471 106.577) rotate(180)" fill="#dedfe6"/></g></g><g transform="translate(1589.947 452.291)"><path d="M1718.355,733.552a24.836,24.836,0,1,0-21.25-11.972A24.841,24.841,0,0,0,1718.355,733.552Z" transform="translate(-1693.514 -679.18)" fill="#435831"/><path d="M1779.5,745.266a17.385,17.385,0,0,0,17.383-17.383c0-.554-.025-1.1-.078-1.642a17.383,17.383,0,1,0-17.306,19.025Z" transform="translate(-1729.431 -693.122)" fill="#4f6140"/><path d="M1742.759,738.748s-1.383,11.537-1.846,27.227,12,15.691,12,15.691v57.471h8.649s-.205-58.621,4.1-63.339,4.308-27.074,4.308-27.074l-2.462-1.436s3.693,26.459-13.127,30.356-10.46-37.74-10.46-37.74Z" transform="translate(-1718.323 -707.911)" fill="#845e34"/><path d="M1712.2,712.71c14.259-2.664,23.653-8.83,28.728-14.371a24.843,24.843,0,1,0-43.826,23.241C1697.787,718.2,1701.486,714.71,1712.2,712.71Z" transform="translate(-1693.514 -679.18)" fill="#587440"/><path d="M1784.577,732.652c5.763-1.661,9.668-3.941,12.229-6.411a17.383,17.383,0,1,0-26.823,16.188C1771.745,739.1,1775.731,735.2,1784.577,732.652Z" transform="translate(-1729.431 -693.122)" fill="#658548"/><path d="M1765.563,893.375h-58.454l3.013,10.847h51.825Z" transform="translate(-1700.631 -788.866)" fill="#807570"/><path d="M1766.8,916.142h-43.381l6.025,24.539h33.139Z" transform="translate(-1709.168 -800.785)" fill="#7d6456"/><path d="M1801.914,707.511l1.5.462s2.359-6.41,2.513-7.282S1801.914,707.511,1801.914,707.511Z" transform="translate(-1750.266 -687.951)" fill="#658548"/><path d="M1823.472,716.05l-7.435,2.256s.051.667,1.025.667S1823.472,716.05,1823.472,716.05Z" transform="translate(-1757.661 -696.028)" fill="#658548"/><path d="M1824.177,748.767h-1.9a10.105,10.105,0,0,0,1.9,4.614C1825.714,755.177,1824.177,748.767,1824.177,748.767Z" transform="translate(-1760.928 -713.157)" fill="#658548"/><path d="M1730.354,674.051c-.769.564,2.718,9.075,2.718,9.075h1.744S1731.123,673.487,1730.354,674.051Z" transform="translate(-1712.744 -674.027)" fill="#587440"/><path d="M1745.848,681.895c.306-2.307-1.488-6.2-1.488-6.2v5.846S1745.54,684.2,1745.848,681.895Z" transform="translate(-1720.134 -674.898)" fill="#587440"/><path d="M1717.885,749.641c1.077-.881,1.128-8.624,1.128-8.624l-1.692.616S1716.808,750.522,1717.885,749.641Z" transform="translate(-1705.914 -709.099)" fill="#587440"/><path d="M1752.425,916.142h-29.011l6.025,24.539h9.5C1733.57,920.935,1752.425,916.142,1752.425,916.142Z" transform="translate(-1709.168 -800.785)" fill="#695448"/></g><g transform="translate(1597.699 539.917)"><path d="M1725.381,944.021c2.38-.991,6.223-12.232,8.074-18.052.657-2.063,1.063-3.447,1.063-3.447h-21.768c1.881,13.437,6.449,21.5,6.449,21.5Z" transform="translate(-1711.337 -891.752)" fill="#8e633f"/><path d="M1740.763,894.864c0-.783,3.493-4.057,5.239-6.193s-.671-6.193-.671-6.193c-7.794,3.223-6.45,12.386-6.45,12.386S1740.763,895.645,1740.763,894.864Z" transform="translate(-1724.971 -870.787)" fill="#98a246"/><path d="M1722.107,882.364h.942s.671-15.823-5.107-17.973-5.778-6.45-5.778-6.45-1.747,5.913,1.076,9,6.045,6.72,5.507,9.676S1722.107,882.364,1722.107,882.364Z" transform="translate(-1710.75 -857.94)" fill="#98a246"/><path d="M1733.456,925.969c.657-2.063,1.063-3.447,1.063-3.447h-21.768c1.881,13.437,6.449,21.5,6.449,21.5h1.421C1720.357,931.439,1728.641,927.307,1733.456,925.969Z" transform="translate(-1711.337 -891.752)" fill="#765334"/><path d="M1732.961,908.474h-21.929l-1.248,6.693h24.067Z" transform="translate(-1709.783 -884.397)" fill="#b27a4b"/></g></g></svg>