<svg xmlns="http://www.w3.org/2000/svg" width="3363.05" height="2298.51" viewBox="0 0 3363.05 2298.51"><g transform="translate(1094.912 391.51)"><rect width="1920" height="1080" fill="#fff"/><path d="M922.985-11.438S826.9,45.16,816.227,170.483,656.091,328.147,829.038,491.876s228.461,62.662,339.489,272.881S1926.505,1072,1926.505,1072s333.083-665.021,320.272-703.426S1996.965-302.51,1996.965-302.51Z" transform="translate(21 -89)" fill="#00326f"/><path d="M2070.241-11.438s96.082,56.6,106.757,181.92,160.136,157.664-12.811,321.393S1935.727,554.537,1824.7,764.756,1066.721,1072,1066.721,1072,733.638,406.979,746.448,368.574,996.261-302.51,996.261-302.51Z" transform="translate(-1841 835)" fill="#00326f"/></g></svg>