<svg xmlns="http://www.w3.org/2000/svg" width="21.447" height="21.35" viewBox="0 0 21.447 21.35"><g transform="translate(0 0)"><path d="M1.525,13.967l1,.458a.879.879,0,0,1,.458,1.1l-.388,1.026a2.462,2.462,0,0,0,.291,2.315,2.5,2.5,0,0,0,2.08,1.1,2.529,2.529,0,0,0,.9-.166L6.89,19.4a.746.746,0,0,1,.3-.055.863.863,0,0,1,.79.513l.458,1a2.527,2.527,0,0,0,4.6,0l.458-1a.871.871,0,0,1,.79-.513.79.79,0,0,1,.3.055l1.026.4a2.546,2.546,0,0,0,.9.18h0a2.591,2.591,0,0,0,2.08-1.109,2.533,2.533,0,0,0,.291-2.329l-.388-1.026a.879.879,0,0,1,.458-1.1l1-.458a2.527,2.527,0,0,0,0-4.6l-1-.458a.879.879,0,0,1-.458-1.1L18.9,6.786a2.462,2.462,0,0,0-.291-2.315,2.5,2.5,0,0,0-2.08-1.1,2.529,2.529,0,0,0-.9.166L14.6,3.93a.746.746,0,0,1-.3.055.863.863,0,0,1-.79-.513l-.458-1a2.507,2.507,0,0,0-2.3-1.483A2.58,2.58,0,0,0,8.4,2.488l-.458,1A.871.871,0,0,1,7.154,4a.79.79,0,0,1-.3-.055L5.823,3.556a2.529,2.529,0,0,0-.9-.166,2.577,2.577,0,0,0-2.08,1.1A2.51,2.51,0,0,0,2.551,6.8l.388,1.026a.879.879,0,0,1-.458,1.1l-1,.458a2.5,2.5,0,0,0,.042,4.589ZM2.2,10.876l1-.458A2.532,2.532,0,0,0,4.52,7.23L4.131,6.2a.827.827,0,0,1,.1-.79.846.846,0,0,1,1.026-.319l1.026.388a2.455,2.455,0,0,0,.887.166h0a2.545,2.545,0,0,0,2.3-1.483l.458-1a.851.851,0,0,1,.79-.513.862.862,0,0,1,.79.513l.458,1a2.545,2.545,0,0,0,2.3,1.483,2.455,2.455,0,0,0,.887-.166l1.026-.388a.888.888,0,0,1,1.026.319.827.827,0,0,1,.1.79L16.914,7.23a2.545,2.545,0,0,0,1.317,3.189l1,.458a.851.851,0,0,1,.513.79.862.862,0,0,1-.513.79l-1,.458A2.532,2.532,0,0,0,16.914,16.1l.388,1.026a.827.827,0,0,1-.1.79.846.846,0,0,1-1.026.319l-1.026-.388a2.455,2.455,0,0,0-.887-.166,2.545,2.545,0,0,0-2.3,1.483l-.458,1a.851.851,0,0,1-.79.513.862.862,0,0,1-.79-.513l-.458-1a2.545,2.545,0,0,0-2.3-1.483,2.455,2.455,0,0,0-.887.166l-1.026.388a.888.888,0,0,1-1.026-.319.827.827,0,0,1-.1-.79L4.52,16.1A2.545,2.545,0,0,0,3.2,12.914l-1-.458a.851.851,0,0,1-.513-.79A.862.862,0,0,1,2.2,10.876Z" transform="translate(0 -0.991)" fill="#878787"/><path d="M148.671,152.7a3.6,3.6,0,1,0-3.6-3.6A3.615,3.615,0,0,0,148.671,152.7Zm0-5.545a1.941,1.941,0,1,1-1.941,1.941A1.947,1.947,0,0,1,148.671,147.155Z" transform="translate(-137.968 -138.421)" fill="#878787"/></g></svg>